<svg id="svg" version="1.1" xmlns="http://www.w3.org/2000/svg" xmlns:xlink="http://www.w3.org/1999/xlink" width="400" height="379.3103448275862" viewBox="0, 0, 400,379.3103448275862"><g id="svgg"><path id="path0" d="M130.550 135.847 C 130.028 136.014,128.840 136.381,127.908 136.664 C 125.937 137.261,121.638 141.286,121.165 142.979 C 120.377 145.797,120.856 151.653,122.011 153.320 C 124.633 157.103,130.501 160.251,133.764 159.624 C 138.264 158.759,141.391 157.027,142.987 154.515 C 143.338 153.962,143.750 153.420,143.902 153.309 C 145.771 151.946,145.493 143.216,143.518 141.241 C 143.065 140.788,142.694 140.258,142.694 140.063 C 142.694 137.797,133.948 134.761,130.550 135.847 M262.728 136.244 C 254.550 139.125,252.415 150.231,258.920 156.051 C 259.597 156.658,260.428 157.407,260.765 157.717 C 262.774 159.562,271.995 159.232,274.386 157.230 C 278.790 153.544,280.257 149.766,279.286 144.616 C 278.010 137.844,269.869 133.728,262.728 136.244 M191.997 163.531 C 183.855 166.507,180.158 171.806,182.555 177.066 C 183.390 178.899,186.724 182.377,188.035 182.783 C 188.458 182.914,189.237 183.326,189.766 183.698 C 190.295 184.071,191.387 184.499,192.192 184.650 C 192.998 184.801,194.614 185.295,195.785 185.749 L 197.913 186.573 198.102 225.526 C 198.305 267.117,198.215 265.441,200.238 265.210 L 201.328 265.085 201.638 226.195 C 201.821 203.099,202.091 187.131,202.302 186.877 C 202.497 186.642,204.151 185.986,205.977 185.420 C 218.092 181.665,222.006 174.422,215.593 167.628 C 210.937 162.696,199.644 160.735,191.997 163.531 " stroke="none" fill="#273e4d" fill-rule="evenodd"></path><path id="path1" d="M57.930 22.281 C 57.335 22.594,55.833 22.941,54.594 23.054 C 52.996 23.199,52.239 23.449,51.990 23.913 C 51.798 24.273,51.094 24.677,50.427 24.810 C 49.760 24.944,48.975 25.393,48.684 25.809 C 48.393 26.225,47.928 26.565,47.651 26.565 C 47.374 26.565,47.058 26.907,46.949 27.324 C 46.840 27.742,46.478 28.083,46.146 28.083 C 45.801 28.083,45.541 28.399,45.541 28.817 C 45.541 29.220,45.211 29.655,44.808 29.783 C 44.394 29.914,43.967 30.510,43.826 31.153 C 43.688 31.779,43.268 32.583,42.893 32.939 C 41.460 34.297,41.304 47.102,42.710 47.916 C 42.983 48.074,43.407 48.808,43.651 49.548 C 44.085 50.865,47.828 55.028,48.577 55.028 C 48.786 55.028,48.956 55.277,48.956 55.581 C 48.956 55.912,49.492 56.233,50.295 56.384 C 51.031 56.522,51.793 56.932,51.987 57.296 C 52.241 57.770,52.992 58.015,54.647 58.165 C 55.915 58.280,57.368 58.646,57.875 58.979 C 59.102 59.783,60.496 59.740,62.907 58.823 C 64.005 58.406,65.659 58.065,66.582 58.065 C 67.927 58.065,68.308 57.914,68.501 57.306 C 68.633 56.888,69.059 56.546,69.446 56.546 C 69.834 56.546,70.658 56.120,71.278 55.598 C 71.898 55.076,72.599 54.649,72.835 54.649 C 73.071 54.649,73.426 54.222,73.624 53.700 C 73.823 53.178,74.245 52.751,74.564 52.751 C 74.882 52.751,75.143 52.453,75.143 52.087 C 75.143 51.722,75.570 50.927,76.092 50.320 C 76.613 49.714,77.040 48.926,77.040 48.569 C 77.040 48.212,77.424 47.432,77.894 46.835 C 78.687 45.826,78.748 45.372,78.748 40.427 C 78.748 35.413,78.698 35.055,77.894 34.250 C 77.424 33.781,77.040 33.082,77.040 32.697 C 77.040 32.312,76.613 31.500,76.092 30.894 C 75.570 30.287,75.143 29.504,75.143 29.153 C 75.143 28.801,74.801 28.406,74.383 28.273 C 73.966 28.141,73.624 27.782,73.624 27.477 C 73.624 27.171,73.325 26.812,72.960 26.679 C 72.595 26.545,71.813 26.038,71.223 25.552 C 70.633 25.066,69.917 24.668,69.632 24.668 C 69.347 24.668,68.890 24.353,68.617 23.968 C 68.262 23.466,67.455 23.208,65.770 23.057 C 64.476 22.941,62.870 22.573,62.201 22.239 C 60.732 21.506,59.381 21.519,57.930 22.281 M335.328 23.871 C 334.969 24.268,334.052 24.710,333.290 24.853 C 332.528 24.996,331.675 25.439,331.396 25.839 C 331.116 26.239,330.687 26.565,330.444 26.565 C 329.743 26.565,324.858 31.820,324.858 32.574 C 324.858 32.948,324.473 33.666,324.004 34.170 C 323.190 35.044,323.150 35.379,323.150 41.357 C 323.150 47.354,323.187 47.665,324.004 48.482 C 324.473 48.952,324.858 49.763,324.858 50.285 C 324.858 50.884,325.072 51.233,325.439 51.233 C 325.758 51.233,326.132 51.532,326.269 51.898 C 326.556 52.660,328.572 54.649,329.059 54.649 C 329.238 54.649,329.557 54.971,329.768 55.364 C 329.978 55.758,330.577 56.187,331.099 56.318 C 331.621 56.449,332.351 56.872,332.722 57.258 C 333.093 57.644,334.136 58.054,335.039 58.170 C 335.942 58.285,336.980 58.650,337.346 58.981 C 338.344 59.884,342.504 59.791,344.402 58.824 C 345.221 58.406,346.612 58.065,347.493 58.065 C 348.762 58.065,349.145 57.907,349.336 57.306 C 349.468 56.888,349.820 56.546,350.117 56.546 C 350.800 56.546,354.087 54.055,354.815 52.987 C 355.116 52.544,355.586 52.046,355.859 51.879 C 356.133 51.712,356.357 51.326,356.357 51.021 C 356.357 50.716,356.693 50.179,357.104 49.827 C 357.527 49.465,357.960 48.458,358.103 47.503 C 358.242 46.577,358.674 45.500,359.064 45.111 C 360.104 44.071,360.102 38.366,359.061 37.424 C 358.659 37.060,358.269 36.068,358.165 35.141 C 358.055 34.166,357.651 33.173,357.168 32.690 C 356.722 32.244,356.357 31.656,356.357 31.383 C 356.357 30.758,353.931 28.083,353.364 28.083 C 353.132 28.083,352.941 27.742,352.941 27.324 C 352.941 26.806,352.688 26.565,352.142 26.565 C 351.703 26.565,350.836 26.139,350.215 25.617 C 349.595 25.095,348.672 24.668,348.165 24.668 C 347.657 24.668,346.949 24.326,346.591 23.909 C 345.629 22.785,336.340 22.754,335.328 23.871 M132.168 134.618 C 132.745 134.705,133.599 134.703,134.066 134.612 C 134.533 134.522,134.061 134.451,133.017 134.454 C 131.973 134.457,131.592 134.530,132.168 134.618 M265.750 134.622 C 266.532 134.704,267.813 134.704,268.596 134.622 C 269.379 134.540,268.738 134.473,267.173 134.473 C 265.607 134.473,264.967 134.540,265.750 134.622 M271.347 135.294 C 271.869 135.592,272.467 135.836,272.676 135.836 C 272.884 135.836,272.628 135.592,272.106 135.294 C 271.584 134.996,270.987 134.752,270.778 134.752 C 270.569 134.752,270.825 134.996,271.347 135.294 M119.402 145.555 C 119.272 145.895,119.188 146.799,119.216 147.564 C 119.261 148.808,119.296 148.754,119.540 147.059 C 119.832 145.039,119.787 144.552,119.402 145.555 M280.524 146.933 C 280.486 147.907,280.357 149.017,280.237 149.400 C 280.032 150.052,280.045 150.053,280.447 149.428 C 280.683 149.060,280.812 147.950,280.734 146.961 L 280.592 145.161 280.524 146.933 M253.978 147.249 C 253.978 147.979,254.056 148.278,254.152 147.913 C 254.247 147.547,254.247 146.950,254.152 146.584 C 254.056 146.219,253.978 146.518,253.978 147.249 M187.735 149.810 C 187.185 150.361,186.138 150.507,181.619 150.664 C 177.009 150.825,176.047 150.963,175.390 151.559 C 174.805 152.090,173.788 152.315,171.272 152.472 C 169.048 152.610,167.801 152.857,167.542 153.211 C 167.085 153.834,164.734 154.437,162.713 154.450 C 161.806 154.456,161.015 154.734,160.531 155.218 C 159.985 155.765,159.266 155.977,157.966 155.977 C 156.595 155.977,156.050 156.153,155.704 156.707 C 155.387 157.215,154.616 157.516,153.168 157.697 C 151.867 157.859,150.844 158.226,150.437 158.675 C 150.066 159.085,149.283 159.393,148.609 159.393 C 147.862 159.393,147.266 159.657,146.980 160.115 C 146.718 160.535,145.875 160.948,144.965 161.102 C 144.105 161.247,143.313 161.595,143.206 161.874 C 143.098 162.154,142.470 162.500,141.809 162.645 C 141.148 162.789,140.124 163.311,139.534 163.806 C 138.944 164.301,138.133 164.706,137.732 164.706 C 137.330 164.706,136.660 165.047,136.243 165.465 C 135.825 165.882,135.068 166.224,134.561 166.224 C 133.979 166.224,133.551 166.497,133.403 166.964 C 133.274 167.370,132.806 167.818,132.363 167.959 C 131.920 168.099,131.213 168.535,130.793 168.927 C 130.372 169.319,129.738 169.639,129.384 169.639 C 129.030 169.639,128.460 170.066,128.118 170.588 C 127.776 171.110,127.253 171.537,126.956 171.537 C 126.658 171.537,125.954 171.964,125.391 172.486 C 124.828 173.008,124.156 173.435,123.898 173.435 C 123.639 173.435,123.339 173.776,123.230 174.194 C 123.111 174.648,122.712 174.953,122.237 174.953 C 121.763 174.953,121.442 175.197,121.442 175.557 C 121.442 175.890,121.109 176.249,120.701 176.356 C 120.293 176.463,119.691 176.959,119.364 177.459 C 119.036 177.959,118.516 178.368,118.208 178.368 C 117.899 178.368,117.647 178.552,117.647 178.776 C 117.647 179.000,116.110 180.686,114.231 182.522 C 112.353 184.359,110.816 186.042,110.816 186.263 C 110.816 186.485,110.474 186.775,110.057 186.907 C 109.639 187.040,109.298 187.466,109.298 187.856 C 109.298 188.245,108.990 188.661,108.615 188.781 C 108.239 188.900,107.721 189.578,107.465 190.288 C 107.208 190.998,106.747 191.675,106.440 191.792 C 106.133 191.910,105.882 192.369,105.882 192.813 C 105.882 193.300,105.582 193.698,105.123 193.818 C 104.695 193.930,104.364 194.336,104.364 194.748 C 104.364 195.151,103.937 195.907,103.416 196.429 C 102.894 196.951,102.467 197.638,102.467 197.955 C 102.467 198.737,101.712 200.122,101.083 200.493 C 100.800 200.660,100.569 201.215,100.569 201.727 C 100.569 202.238,100.254 202.971,99.870 203.356 C 99.485 203.741,99.062 204.723,98.929 205.537 C 98.797 206.352,98.410 207.222,98.069 207.472 C 97.650 207.778,97.385 208.724,97.251 210.397 C 97.107 212.196,96.835 213.103,96.251 213.729 C 94.964 215.111,95.016 239.330,96.309 240.706 C 96.956 241.395,97.154 242.061,97.154 243.558 C 97.154 245.048,97.341 245.686,97.944 246.247 C 98.410 246.681,98.819 247.661,98.941 248.634 C 99.055 249.542,99.446 250.626,99.809 251.044 C 100.172 251.461,100.591 252.315,100.740 252.941 C 100.889 253.567,101.338 254.385,101.739 254.759 C 102.139 255.132,102.467 255.848,102.467 256.350 C 102.467 256.852,102.784 257.486,103.171 257.758 C 103.559 258.031,103.997 258.639,104.146 259.109 C 104.294 259.578,104.746 260.139,105.149 260.355 C 105.565 260.578,105.882 261.147,105.882 261.670 C 105.882 262.185,106.198 262.761,106.598 262.975 C 106.991 263.185,107.421 263.789,107.554 264.316 C 107.686 264.844,108.053 265.275,108.368 265.275 C 108.684 265.275,109.048 265.551,109.177 265.887 C 109.759 267.404,120.831 278.513,122.296 279.050 C 122.661 279.184,122.960 279.536,122.960 279.833 C 122.960 280.130,123.387 280.480,123.909 280.611 C 124.431 280.742,124.858 281.086,124.858 281.374 C 124.858 281.663,125.397 282.087,126.056 282.317 C 126.715 282.547,127.494 283.076,127.785 283.493 C 128.077 283.909,128.637 284.250,129.028 284.250 C 129.420 284.250,129.849 284.592,129.981 285.009 C 130.114 285.427,130.552 285.769,130.955 285.769 C 131.359 285.769,132.014 286.093,132.410 286.490 C 132.807 286.887,133.468 287.318,133.878 287.449 C 134.289 287.579,134.930 288.023,135.303 288.435 C 135.676 288.847,136.461 289.184,137.047 289.184 C 137.703 289.184,138.261 289.459,138.496 289.899 C 138.707 290.292,139.479 290.726,140.213 290.864 C 140.960 291.004,141.722 291.441,141.944 291.857 C 142.202 292.338,142.738 292.600,143.467 292.600 C 144.086 292.600,144.932 292.940,145.349 293.356 C 145.765 293.772,146.802 294.269,147.653 294.460 C 148.504 294.652,149.501 295.080,149.867 295.412 C 150.234 295.744,151.053 296.015,151.686 296.015 C 152.320 296.015,153.285 296.366,153.831 296.796 C 154.377 297.225,155.687 297.713,156.742 297.880 C 157.797 298.047,158.868 298.447,159.121 298.770 C 159.420 299.150,160.418 299.412,161.956 299.513 C 163.558 299.618,164.668 299.920,165.375 300.443 C 166.143 301.010,167.216 301.268,169.398 301.408 C 171.363 301.534,172.484 301.778,172.699 302.128 C 172.927 302.499,174.499 302.777,177.960 303.060 C 181.635 303.361,183.077 303.627,183.603 304.104 C 184.390 304.816,218.596 305.116,218.596 304.410 C 218.596 303.745,220.768 303.261,224.858 303.013 C 227.765 302.837,229.232 302.585,229.689 302.182 C 230.095 301.824,231.603 301.488,233.635 301.303 C 235.444 301.138,237.030 300.831,237.160 300.620 C 237.545 299.997,239.405 299.431,241.064 299.431 C 242.026 299.431,242.774 299.207,243.043 298.840 C 243.290 298.502,244.417 298.122,245.682 297.950 C 246.897 297.785,248.002 297.479,248.139 297.269 C 248.586 296.583,250.020 296.015,251.307 296.015 C 252.158 296.015,252.723 295.768,253.043 295.256 C 253.368 294.735,253.928 294.497,254.829 294.497 C 255.750 294.497,256.261 294.272,256.545 293.741 C 256.801 293.262,257.515 292.894,258.489 292.738 C 259.335 292.603,260.113 292.268,260.218 291.995 C 260.323 291.722,261.034 291.296,261.798 291.050 C 262.563 290.803,263.493 290.282,263.867 289.893 C 264.240 289.503,264.960 289.184,265.466 289.184 C 265.986 289.184,266.557 288.867,266.777 288.456 C 266.991 288.055,267.723 287.606,268.403 287.456 C 269.083 287.307,269.863 286.866,270.135 286.477 C 270.408 286.087,270.870 285.769,271.162 285.769 C 271.454 285.769,272.119 285.342,272.641 284.820 C 273.163 284.298,273.848 283.871,274.163 283.871 C 274.478 283.871,274.919 283.529,275.142 283.112 C 275.366 282.694,275.873 282.353,276.269 282.353 C 276.665 282.353,277.089 282.054,277.212 281.689 C 277.334 281.324,278.130 280.598,278.980 280.076 C 279.829 279.554,281.052 278.657,281.697 278.083 C 282.342 277.509,283.095 277.040,283.370 277.040 C 283.646 277.040,283.871 276.698,283.871 276.281 C 283.871 275.863,284.107 275.522,284.397 275.522 C 284.686 275.522,285.202 275.095,285.544 274.573 C 285.886 274.051,286.398 273.624,286.682 273.624 C 286.966 273.624,287.291 273.270,287.404 272.837 C 287.517 272.404,287.964 271.957,288.397 271.844 C 288.842 271.728,289.184 271.328,289.184 270.923 C 289.184 270.462,289.453 270.209,289.943 270.209 C 290.443 270.209,290.702 269.956,290.702 269.469 C 290.702 269.061,290.917 268.592,291.179 268.425 C 291.441 268.258,292.252 267.295,292.982 266.284 C 293.711 265.274,294.692 264.090,295.161 263.654 C 295.631 263.218,296.015 262.703,296.015 262.510 C 296.015 262.317,296.442 261.652,296.964 261.031 C 297.486 260.411,297.913 259.667,297.913 259.377 C 297.913 259.087,298.254 258.667,298.672 258.444 C 299.116 258.206,299.431 257.649,299.431 257.102 C 299.431 256.588,299.778 255.820,300.202 255.396 C 300.626 254.972,301.081 254.076,301.213 253.404 C 301.345 252.732,301.767 251.959,302.150 251.686 C 302.555 251.397,302.846 250.724,302.846 250.073 C 302.846 249.459,303.165 248.637,303.555 248.247 C 303.983 247.819,304.370 246.692,304.531 245.404 C 304.704 244.022,305.035 243.101,305.471 242.792 C 306.007 242.412,306.189 241.559,306.364 238.593 C 306.523 235.890,306.773 234.590,307.276 233.849 C 308.304 232.334,308.309 221.942,307.283 220.431 C 306.795 219.713,306.534 218.391,306.380 215.877 C 306.218 213.212,305.995 212.146,305.479 211.575 C 305.102 211.157,304.675 209.919,304.530 208.824 C 304.385 207.728,304.145 206.831,303.997 206.831 C 303.563 206.831,302.846 204.987,302.846 203.868 C 302.846 203.266,302.545 202.651,302.121 202.386 C 301.723 202.137,301.276 201.371,301.128 200.682 C 300.981 199.994,300.539 199.125,300.146 198.752 C 299.752 198.378,299.431 197.567,299.431 196.949 C 299.431 196.187,299.241 195.825,298.842 195.825 C 298.518 195.825,298.074 195.313,297.856 194.687 C 297.638 194.061,297.296 193.548,297.097 193.548 C 296.898 193.548,296.469 192.911,296.143 192.131 C 295.818 191.352,295.229 190.489,294.835 190.212 C 294.440 189.936,294.118 189.464,294.118 189.163 C 294.118 188.861,293.856 188.615,293.536 188.615 C 293.217 188.615,292.846 188.316,292.713 187.951 C 292.236 186.645,285.091 178.970,282.867 177.375 C 282.320 176.982,281.376 176.191,280.771 175.617 C 280.165 175.043,279.505 174.573,279.304 174.573 C 279.102 174.573,278.937 174.320,278.937 174.011 C 278.937 173.702,278.517 173.343,278.002 173.214 C 277.488 173.085,276.964 172.655,276.838 172.258 C 276.712 171.862,276.271 171.537,275.858 171.537 C 275.444 171.537,274.710 171.110,274.227 170.588 C 273.743 170.066,273.052 169.639,272.691 169.639 C 272.330 169.639,271.951 169.316,271.847 168.921 C 271.738 168.504,271.199 168.111,270.560 167.983 C 269.955 167.862,269.164 167.417,268.801 166.993 C 268.439 166.570,267.871 166.224,267.539 166.224 C 267.208 166.224,266.570 165.882,266.122 165.465 C 265.673 165.047,265.026 164.706,264.682 164.706 C 264.338 164.706,263.549 164.279,262.929 163.757 C 262.309 163.235,261.480 162.808,261.086 162.808 C 260.693 162.808,260.066 162.482,259.692 162.083 C 259.319 161.684,258.349 161.233,257.538 161.082 C 256.727 160.931,255.745 160.489,255.356 160.100 C 254.967 159.711,254.169 159.393,253.582 159.393 C 252.995 159.393,252.175 159.076,251.759 158.688 C 251.342 158.300,250.188 157.861,249.193 157.712 C 248.145 157.555,247.121 157.133,246.758 156.709 C 246.301 156.176,245.639 155.977,244.318 155.977 C 243.062 155.977,242.290 155.762,241.805 155.277 C 241.369 154.841,240.260 154.481,238.864 154.320 C 237.631 154.179,236.195 153.753,235.674 153.373 C 234.991 152.877,233.728 152.619,231.174 152.455 C 228.513 152.283,227.433 152.054,226.865 151.540 C 226.238 150.973,225.173 150.814,220.738 150.627 C 215.468 150.404,214.042 150.161,214.042 149.485 C 214.042 148.757,188.471 149.073,187.735 149.810 M266.319 160.420 C 266.788 160.510,267.557 160.510,268.027 160.420 C 268.496 160.329,268.112 160.255,267.173 160.255 C 266.233 160.255,265.849 160.329,266.319 160.420 M206.317 161.611 C 208.458 161.783,209.634 162.064,210.142 162.524 C 210.546 162.889,211.233 163.188,211.671 163.188 C 212.108 163.188,212.973 163.615,213.593 164.137 C 214.213 164.658,214.832 165.085,214.969 165.085 C 215.338 165.085,217.837 167.578,217.837 167.946 C 217.837 168.120,218.221 168.671,218.691 169.171 C 219.461 169.991,219.545 170.459,219.545 173.948 C 219.545 177.435,219.460 177.907,218.691 178.733 C 218.221 179.237,217.837 179.821,217.837 180.030 C 217.837 180.564,214.802 183.251,213.868 183.543 C 213.442 183.677,212.686 184.104,212.188 184.492 C 211.690 184.881,210.942 185.199,210.525 185.199 C 210.108 185.199,209.203 185.548,208.514 185.974 C 207.824 186.400,206.526 186.874,205.627 187.027 L 203.994 187.306 203.342 191.091 C 202.757 194.481,202.687 198.556,202.673 230.049 C 202.655 269.394,202.882 266.414,199.902 266.414 C 198.822 266.414,198.071 266.160,197.463 265.588 L 196.584 264.763 196.584 225.930 L 196.584 187.097 195.538 187.097 C 194.044 187.097,192.127 186.489,191.433 185.795 C 191.106 185.467,190.489 185.199,190.064 185.199 C 189.278 185.199,185.579 183.006,185.579 182.540 C 185.579 182.400,185.152 182.090,184.630 181.853 C 184.108 181.615,183.681 181.172,183.681 180.869 C 183.681 180.565,183.340 180.208,182.922 180.076 C 182.505 179.943,182.163 179.575,182.163 179.257 C 182.163 178.940,181.804 178.389,181.365 178.033 C 180.148 177.048,180.136 170.893,181.349 170.087 C 181.797 169.790,182.163 169.232,182.163 168.847 C 182.163 168.040,184.429 165.640,185.518 165.295 C 185.922 165.166,186.708 164.640,187.264 164.124 C 187.824 163.605,188.735 163.188,189.309 163.188 C 189.878 163.188,190.636 162.846,190.994 162.429 C 191.524 161.809,192.148 161.662,194.399 161.625 C 195.914 161.600,197.666 161.440,198.292 161.270 C 198.918 161.099,200.285 161.050,201.328 161.161 C 202.372 161.272,204.617 161.475,206.317 161.611 " stroke="none" fill="#bcc4c4" fill-rule="evenodd"></path><path id="path2" d="M47.438 0.569 C 47.438 1.017,46.911 1.139,44.972 1.139 C 42.758 1.139,42.505 1.216,42.505 1.898 C 42.505 2.544,42.252 2.657,40.797 2.657 C 39.228 2.657,39.089 2.734,39.089 3.605 C 39.089 4.404,38.911 4.554,37.965 4.554 C 37.347 4.554,36.536 4.877,36.163 5.272 C 35.789 5.667,35.142 6.053,34.725 6.130 C 34.284 6.211,33.915 6.626,33.845 7.120 C 33.765 7.680,33.462 7.970,32.955 7.970 C 32.506 7.970,32.105 8.285,31.989 8.729 C 31.879 9.149,31.471 9.488,31.075 9.488 C 30.566 9.488,30.361 9.760,30.361 10.436 C 30.361 11.146,30.160 11.385,29.566 11.385 C 29.103 11.385,28.692 11.688,28.582 12.109 C 28.478 12.507,28.067 12.918,27.669 13.022 C 27.247 13.133,26.945 13.544,26.945 14.006 C 26.945 14.533,26.703 14.801,26.227 14.801 C 25.409 14.801,25.047 15.508,25.047 17.109 C 25.047 17.963,24.874 18.216,24.288 18.216 C 23.788 18.216,23.529 18.469,23.529 18.958 C 23.529 19.366,23.102 20.127,22.581 20.649 C 21.847 21.382,21.632 21.988,21.632 23.322 C 21.632 24.794,21.521 25.047,20.873 25.047 C 20.187 25.047,20.114 25.300,20.114 27.678 C 20.114 30.116,20.052 30.317,19.260 30.429 L 18.406 30.550 18.406 40.607 L 18.406 50.664 19.260 50.785 C 20.052 50.898,20.114 51.098,20.114 53.537 C 20.114 55.661,20.260 56.313,20.873 56.926 C 21.290 57.343,21.632 58.183,21.632 58.792 C 21.632 60.394,21.993 61.101,22.811 61.101 C 23.348 61.101,23.529 61.374,23.529 62.180 C 23.529 62.774,23.861 63.560,24.267 63.928 C 24.673 64.295,25.057 64.962,25.121 65.410 C 25.194 65.919,25.557 66.269,26.091 66.345 C 26.709 66.433,26.945 66.721,26.945 67.389 C 26.945 68.058,27.153 68.311,27.704 68.311 C 28.210 68.311,28.463 68.564,28.463 69.070 C 28.463 69.627,28.716 69.829,29.412 69.829 C 30.171 69.829,30.361 70.019,30.361 70.778 C 30.361 71.474,30.563 71.727,31.120 71.727 C 31.626 71.727,31.879 71.980,31.879 72.486 C 31.879 73.042,32.132 73.245,32.827 73.245 C 33.537 73.245,33.776 73.445,33.776 74.039 C 33.776 74.510,34.080 74.913,34.523 75.029 C 34.933 75.136,35.372 75.547,35.497 75.942 C 35.675 76.504,36.090 76.660,37.407 76.660 C 38.948 76.660,39.089 76.740,39.089 77.609 C 39.089 78.481,39.228 78.558,40.797 78.558 C 42.857 78.558,43.204 79.844,41.556 81.371 C 41.034 81.855,40.607 82.615,40.607 83.061 C 40.607 83.618,40.370 83.871,39.848 83.871 C 39.351 83.871,39.089 84.124,39.089 84.604 C 39.089 85.074,38.784 85.380,38.235 85.457 C 37.687 85.535,37.338 85.884,37.260 86.433 C 37.184 86.969,36.876 87.287,36.432 87.287 C 36.031 87.287,35.609 87.656,35.457 88.140 C 35.310 88.610,34.872 89.402,34.483 89.899 C 34.094 90.397,33.776 91.111,33.776 91.486 C 33.776 91.904,33.446 92.214,32.922 92.289 C 32.388 92.365,32.025 92.715,31.952 93.225 C 31.888 93.673,31.504 94.127,31.098 94.233 C 30.600 94.363,30.361 94.755,30.361 95.437 C 30.361 96.468,29.603 97.533,28.870 97.533 C 28.646 97.533,28.463 97.960,28.463 98.482 C 28.463 99.178,28.261 99.431,27.704 99.431 C 27.118 99.431,26.945 99.684,26.945 100.542 C 26.945 101.275,26.622 101.907,25.996 102.399 C 25.474 102.809,25.047 103.408,25.047 103.729 C 25.047 104.050,24.706 104.422,24.288 104.554 C 23.702 104.740,23.529 105.128,23.529 106.261 C 23.529 107.492,23.393 107.747,22.676 107.848 C 22.019 107.942,21.794 108.258,21.702 109.215 C 21.632 109.938,21.274 110.654,20.848 110.920 C 20.444 111.172,20.114 111.780,20.114 112.271 C 20.114 112.846,19.843 113.235,19.352 113.363 C 18.816 113.503,18.521 113.996,18.357 115.025 C 18.208 115.951,17.876 116.565,17.450 116.701 C 17.044 116.830,16.674 117.466,16.516 118.311 C 16.372 119.080,15.927 119.937,15.527 120.217 C 15.020 120.572,14.801 121.179,14.801 122.223 C 14.801 123.311,14.643 123.719,14.222 123.719 C 13.486 123.719,12.903 125.239,12.903 127.159 C 12.903 128.400,12.775 128.653,12.144 128.653 C 11.498 128.653,11.385 128.906,11.385 130.361 C 11.385 131.780,11.265 132.068,10.670 132.068 C 9.829 132.068,9.500 133.048,9.493 135.579 C 9.488 137.127,9.380 137.381,8.729 137.381 C 8.062 137.381,7.970 137.634,7.970 139.460 C 7.970 141.258,7.842 141.622,7.021 142.160 C 6.173 142.716,6.072 143.039,6.072 145.205 C 6.072 147.375,5.993 147.628,5.313 147.628 C 4.623 147.628,4.554 147.881,4.554 150.421 C 4.554 152.958,4.467 153.280,3.605 153.927 C 2.718 154.593,2.657 154.858,2.657 158.000 C 2.657 161.042,2.584 161.380,1.898 161.560 C 1.186 161.746,1.139 162.078,1.139 166.837 C 1.139 171.099,1.047 171.917,0.569 171.917 C 0.069 171.917,0.000 174.910,0.000 196.584 C 0.000 218.258,0.069 221.252,0.569 221.252 C 1.043 221.252,1.139 222.001,1.139 225.715 C 1.139 229.767,1.208 230.222,1.898 230.652 C 2.559 231.065,2.657 231.537,2.657 234.318 C 2.657 238.006,2.845 238.710,3.836 238.710 C 4.481 238.710,4.554 239.020,4.554 241.743 C 4.554 244.364,4.657 244.840,5.313 245.249 C 5.913 245.624,6.072 246.134,6.072 247.688 C 6.072 250.142,6.337 250.854,7.251 250.854 C 7.876 250.854,7.970 251.150,7.970 253.118 C 7.970 254.993,8.100 255.451,8.729 255.787 C 9.285 256.085,9.488 256.582,9.488 257.645 C 9.488 258.750,9.714 259.267,10.436 259.809 C 11.220 260.398,11.385 260.842,11.385 262.365 C 11.385 263.889,11.517 264.242,12.144 264.406 C 12.710 264.554,12.903 264.924,12.903 265.858 C 12.903 267.602,13.244 268.311,14.082 268.311 C 14.681 268.311,14.801 268.596,14.801 270.019 C 14.801 271.457,14.917 271.727,15.538 271.727 C 16.134 271.727,16.297 272.036,16.392 273.340 C 16.489 274.680,16.653 274.973,17.362 275.074 C 18.101 275.179,18.216 275.422,18.216 276.876 C 18.216 278.417,18.296 278.558,19.165 278.558 C 20.037 278.558,20.114 278.697,20.114 280.266 C 20.114 281.720,20.226 281.973,20.873 281.973 C 21.435 281.973,21.632 282.226,21.632 282.947 C 21.632 284.220,22.274 285.389,22.974 285.389 C 23.313 285.389,23.529 285.758,23.529 286.338 C 23.529 287.024,23.733 287.287,24.266 287.287 C 24.842 287.287,25.027 287.595,25.119 288.710 C 25.206 289.756,25.463 290.232,26.091 290.507 C 26.561 290.713,26.945 291.145,26.945 291.467 C 26.945 291.789,27.287 292.299,27.704 292.600 C 28.121 292.901,28.463 293.524,28.463 293.985 C 28.463 294.833,29.362 296.015,30.008 296.015 C 30.202 296.015,30.361 296.357,30.361 296.774 C 30.361 297.263,30.614 297.533,31.071 297.533 C 31.609 297.533,31.842 297.910,32.030 299.090 C 32.207 300.195,32.496 300.703,33.028 300.842 C 33.454 300.953,33.776 301.360,33.776 301.788 C 33.776 302.219,34.099 302.622,34.535 302.736 C 34.955 302.846,35.294 303.254,35.294 303.650 C 35.294 304.159,35.567 304.364,36.243 304.364 C 37.006 304.364,37.192 304.553,37.192 305.330 C 37.192 305.862,37.619 306.723,38.140 307.245 C 38.662 307.767,39.089 308.458,39.089 308.781 C 39.089 309.105,39.431 309.458,39.848 309.567 C 40.268 309.677,40.607 310.085,40.607 310.481 C 40.607 310.990,40.880 311.195,41.556 311.195 C 42.315 311.195,42.505 311.385,42.505 312.144 C 42.505 312.829,42.709 313.093,43.237 313.093 C 43.708 313.093,44.013 313.398,44.091 313.947 C 44.169 314.496,44.518 314.844,45.066 314.922 C 45.615 315.000,45.920 315.305,45.920 315.776 C 45.920 316.247,46.182 316.509,46.653 316.509 C 47.124 316.509,47.429 316.814,47.507 317.362 C 47.585 317.911,47.933 318.260,48.482 318.338 C 49.031 318.416,49.336 318.721,49.336 319.191 C 49.336 319.662,49.598 319.924,50.068 319.924 C 50.539 319.924,50.844 320.229,50.922 320.778 C 51.000 321.327,51.349 321.675,51.898 321.753 C 52.446 321.831,52.751 322.136,52.751 322.607 C 52.751 323.078,53.013 323.340,53.484 323.340 C 53.955 323.340,54.260 323.645,54.338 324.194 C 54.416 324.742,54.764 325.091,55.313 325.169 C 55.862 325.247,56.167 325.552,56.167 326.023 C 56.167 326.493,56.429 326.755,56.900 326.755 C 57.370 326.755,57.676 327.060,57.753 327.609 C 57.831 328.158,58.180 328.506,58.729 328.584 C 59.277 328.662,59.583 328.967,59.583 329.438 C 59.583 329.967,59.847 330.171,60.531 330.171 C 61.290 330.171,61.480 330.361,61.480 331.120 C 61.480 331.815,61.682 332.068,62.239 332.068 C 62.666 332.068,62.998 332.321,62.998 332.646 C 62.998 332.963,63.465 333.433,64.037 333.689 C 64.608 333.946,65.376 334.454,65.744 334.820 C 66.112 335.185,66.841 335.484,67.362 335.484 C 68.121 335.484,68.311 335.674,68.311 336.433 C 68.311 337.109,68.517 337.381,69.026 337.381 C 69.422 337.381,69.829 337.720,69.939 338.140 C 70.053 338.577,70.457 338.899,70.888 338.899 C 71.316 338.899,71.722 339.221,71.834 339.648 C 71.973 340.179,72.481 340.468,73.586 340.645 C 74.765 340.834,75.142 341.066,75.142 341.604 C 75.142 342.048,75.412 342.315,75.860 342.315 C 76.309 342.315,76.667 342.670,76.816 343.264 C 76.972 343.885,77.320 344.213,77.822 344.213 C 78.244 344.213,78.956 344.554,79.404 344.972 C 79.852 345.389,80.602 345.731,81.070 345.731 C 81.663 345.731,81.957 345.989,82.042 346.584 C 82.135 347.241,82.451 347.466,83.409 347.558 C 84.132 347.628,84.847 347.986,85.113 348.412 C 85.365 348.816,85.946 349.146,86.403 349.146 C 86.976 349.146,87.271 349.411,87.355 350.000 C 87.455 350.707,87.749 350.874,89.065 350.969 C 90.369 351.064,90.676 351.235,90.773 351.918 C 90.856 352.498,91.197 352.787,91.896 352.868 C 92.448 352.932,93.201 353.316,93.568 353.722 C 93.935 354.127,94.616 354.459,95.081 354.459 C 95.603 354.459,96.001 354.745,96.122 355.208 C 96.260 355.736,96.767 356.028,97.841 356.200 C 98.888 356.367,99.423 356.667,99.552 357.159 C 99.697 357.713,100.090 357.875,101.293 357.875 C 102.564 357.875,102.846 358.005,102.846 358.593 C 102.846 359.405,103.552 359.772,105.110 359.772 C 105.854 359.772,106.233 360.000,106.372 360.531 C 106.529 361.132,106.889 361.290,108.098 361.290 C 109.264 361.290,109.680 361.461,109.854 362.008 C 110.111 362.817,111.115 363.175,113.144 363.183 C 114.201 363.187,114.569 363.365,114.721 363.947 C 114.877 364.544,115.239 364.706,116.412 364.706 C 117.636 364.706,117.983 364.877,118.337 365.655 C 118.728 366.514,118.985 366.603,121.054 366.603 C 123.087 366.603,123.340 366.687,123.340 367.362 C 123.340 368.020,123.593 368.121,125.237 368.121 C 126.685 368.121,127.135 368.259,127.135 368.700 C 127.135 369.434,128.653 370.019,130.555 370.019 C 131.601 370.019,132.326 370.294,133.053 370.968 C 133.879 371.734,134.467 371.917,136.105 371.917 C 137.723 371.917,138.230 372.070,138.608 372.676 C 139.006 373.313,139.493 373.435,141.647 373.435 C 143.595 373.435,144.213 373.563,144.213 373.967 C 144.213 374.758,146.277 375.332,149.119 375.332 C 151.200 375.332,151.730 375.463,152.182 376.091 C 152.665 376.761,153.165 376.850,156.422 376.850 C 159.124 376.850,160.195 376.988,160.418 377.364 C 161.067 378.463,162.450 378.748,167.148 378.748 C 170.074 378.748,171.917 378.894,171.917 379.127 C 171.917 379.377,181.531 379.507,200.000 379.507 C 218.469 379.507,228.083 379.377,228.083 379.127 C 228.083 378.893,230.026 378.748,233.151 378.748 C 238.031 378.748,238.257 378.712,239.243 377.799 C 240.182 376.928,240.558 376.850,243.794 376.850 C 246.839 376.850,247.415 376.746,248.008 376.091 C 248.566 375.474,249.176 375.332,251.274 375.332 C 254.007 375.332,255.787 374.784,255.787 373.943 C 255.787 373.567,256.477 373.435,258.444 373.435 C 260.796 373.435,261.101 373.352,261.101 372.717 C 261.101 372.089,261.461 371.981,263.988 371.854 C 266.413 371.731,266.985 371.573,267.559 370.863 C 268.088 370.210,268.642 370.019,270.002 370.019 C 271.373 370.019,271.971 369.809,272.710 369.070 C 273.402 368.378,274.065 368.121,275.160 368.121 C 276.396 368.121,276.660 367.991,276.660 367.380 C 276.660 366.728,276.972 366.624,279.222 366.526 C 281.550 366.424,281.795 366.336,281.905 365.560 C 282.010 364.821,282.253 364.706,283.708 364.706 C 285.136 364.706,285.389 364.592,285.389 363.947 C 285.389 363.316,285.642 363.188,286.882 363.188 C 288.803 363.188,290.323 362.605,290.323 361.869 C 290.323 361.445,290.737 361.290,291.876 361.290 C 293.111 361.290,293.470 361.134,293.628 360.531 C 293.776 359.965,294.146 359.772,295.084 359.772 C 296.281 359.772,297.533 358.982,297.533 358.227 C 297.533 358.033,298.147 357.875,298.897 357.875 C 299.918 357.875,300.308 357.693,300.449 357.154 C 300.584 356.640,301.113 356.361,302.292 356.185 C 303.464 356.009,304.015 355.721,304.181 355.198 C 304.310 354.792,304.683 354.459,305.010 354.459 C 305.336 354.459,305.887 354.132,306.233 353.733 C 306.580 353.334,307.368 352.949,307.986 352.879 C 308.803 352.786,309.140 352.525,309.227 351.918 C 309.324 351.235,309.631 351.064,310.935 350.969 C 312.156 350.881,312.610 350.656,312.898 350.000 C 313.104 349.530,313.511 349.146,313.803 349.146 C 314.094 349.146,314.616 348.819,314.962 348.420 C 315.308 348.021,316.097 347.636,316.714 347.566 C 317.541 347.472,317.869 347.213,317.958 346.584 C 318.052 345.925,318.328 345.731,319.170 345.731 C 319.811 345.731,320.469 345.433,320.766 345.009 C 321.044 344.612,321.694 344.228,322.211 344.155 C 322.844 344.066,323.189 343.745,323.271 343.169 C 323.349 342.620,323.654 342.315,324.125 342.315 C 324.590 342.315,324.858 342.053,324.858 341.599 C 324.858 341.042,325.235 340.826,326.565 340.627 C 327.914 340.425,328.273 340.216,328.273 339.635 C 328.273 339.103,328.536 338.899,329.222 338.899 C 329.906 338.899,330.171 338.695,330.171 338.167 C 330.171 337.696,330.476 337.391,331.025 337.313 C 331.573 337.235,331.922 336.887,332.000 336.338 C 332.067 335.868,332.384 335.484,332.706 335.484 C 333.571 335.484,337.002 333.160,337.002 332.574 C 337.002 332.296,337.340 332.068,337.754 332.068 C 338.239 332.068,338.590 331.732,338.744 331.120 C 338.893 330.526,339.250 330.171,339.700 330.171 C 340.164 330.171,340.417 329.903,340.417 329.412 C 340.417 328.855,340.670 328.653,341.366 328.653 C 342.125 328.653,342.315 328.463,342.315 327.704 C 342.315 327.008,342.517 326.755,343.074 326.755 C 343.580 326.755,343.833 326.502,343.833 325.996 C 343.833 325.440,344.086 325.237,344.782 325.237 C 345.541 325.237,345.731 325.047,345.731 324.288 C 345.731 323.593,345.933 323.340,346.490 323.340 C 346.996 323.340,347.249 323.087,347.249 322.581 C 347.249 322.024,347.502 321.822,348.197 321.822 C 348.956 321.822,349.146 321.632,349.146 320.873 C 349.146 320.114,349.336 319.924,350.095 319.924 C 350.771 319.924,351.044 319.719,351.044 319.209 C 351.044 318.814,351.383 318.406,351.803 318.296 C 352.257 318.177,352.562 317.778,352.562 317.303 C 352.562 316.709,352.801 316.509,353.510 316.509 C 354.206 316.509,354.459 316.306,354.459 315.750 C 354.459 315.244,354.712 314.991,355.218 314.991 C 355.769 314.991,355.977 314.738,355.977 314.068 C 355.977 313.401,356.213 313.112,356.831 313.024 C 357.380 312.947,357.728 312.598,357.806 312.049 C 357.884 311.501,358.189 311.195,358.660 311.195 C 359.140 311.195,359.393 310.933,359.393 310.436 C 359.393 310.008,359.646 309.677,359.974 309.677 C 360.294 309.677,360.664 309.379,360.798 309.013 C 360.931 308.648,361.438 307.866,361.924 307.276 C 362.410 306.686,362.808 305.790,362.808 305.284 C 362.808 304.556,363.006 304.364,363.757 304.364 C 364.433 304.364,364.706 304.159,364.706 303.650 C 364.706 303.254,365.045 302.846,365.465 302.736 C 365.882 302.627,366.224 302.221,366.224 301.833 C 366.224 301.446,366.608 300.960,367.078 300.754 C 367.705 300.479,367.963 300.002,368.049 298.956 C 368.142 297.841,368.327 297.533,368.903 297.533 C 369.365 297.533,369.639 297.273,369.639 296.835 C 369.639 296.451,370.066 295.942,370.588 295.705 C 371.371 295.348,371.537 295.006,371.537 293.746 C 371.537 292.371,371.631 292.220,372.486 292.220 C 373.162 292.220,373.435 292.015,373.435 291.505 C 373.435 291.110,373.773 290.702,374.194 290.592 C 374.794 290.435,374.953 290.074,374.953 288.866 C 374.953 287.574,375.083 287.321,375.803 287.218 C 376.292 287.148,376.714 286.776,376.797 286.342 C 376.876 285.926,377.262 285.362,377.654 285.087 C 378.118 284.762,378.368 284.129,378.368 283.280 C 378.368 282.253,378.521 281.973,379.083 281.973 C 379.811 281.973,380.251 281.017,380.260 279.412 C 380.264 278.813,380.492 278.558,381.025 278.558 C 381.669 278.558,381.784 278.305,381.784 276.876 C 381.784 275.422,381.899 275.179,382.638 275.074 C 383.347 274.973,383.511 274.680,383.608 273.340 C 383.703 272.036,383.866 271.727,384.462 271.727 C 385.081 271.727,385.199 271.457,385.199 270.045 C 385.199 268.591,385.314 268.348,386.053 268.243 C 386.782 268.139,386.924 267.857,387.023 266.319 C 387.118 264.826,387.265 264.516,387.877 264.516 C 388.532 264.516,388.615 264.240,388.615 262.049 C 388.615 259.671,388.649 259.583,389.564 259.583 C 390.431 259.583,390.512 259.440,390.512 257.921 C 390.512 256.642,390.700 256.135,391.329 255.717 C 391.957 255.300,392.186 254.683,392.322 253.047 C 392.461 251.370,392.650 250.880,393.213 250.732 C 393.814 250.575,393.928 250.179,393.928 248.250 C 393.928 246.308,394.074 245.809,394.877 245.006 C 395.706 244.177,395.825 243.727,395.825 241.428 C 395.825 239.117,395.918 238.774,396.584 238.600 C 397.274 238.419,397.343 238.082,397.343 234.933 C 397.343 231.739,397.419 231.389,398.292 230.516 C 399.189 229.619,399.241 229.338,399.241 225.410 C 399.241 222.891,399.391 221.252,399.620 221.252 C 399.870 221.252,400.000 212.777,400.000 196.584 C 400.000 180.392,399.870 171.917,399.620 171.917 C 399.390 171.917,399.239 170.237,399.236 167.647 C 399.230 162.701,399.059 161.810,398.067 161.551 C 397.424 161.382,397.343 160.988,397.343 158.002 C 397.343 155.053,397.251 154.584,396.584 154.168 C 395.954 153.774,395.825 153.283,395.825 151.261 C 395.825 148.339,395.595 147.628,394.646 147.628 C 394.014 147.628,393.928 147.328,393.928 145.126 C 393.928 142.962,393.828 142.597,393.186 142.429 C 392.568 142.268,392.425 141.846,392.332 139.903 C 392.232 137.829,392.128 137.558,391.383 137.452 C 390.629 137.345,390.535 137.082,390.434 134.796 C 390.333 132.493,390.244 132.247,389.469 132.137 C 388.730 132.032,388.615 131.789,388.615 130.334 C 388.615 128.906,388.501 128.653,387.856 128.653 C 387.225 128.653,387.097 128.400,387.097 127.159 C 387.097 125.239,386.514 123.719,385.778 123.719 C 385.346 123.719,385.199 123.291,385.199 122.037 C 385.199 120.688,385.049 120.307,384.440 120.114 C 383.914 119.947,383.681 119.540,383.681 118.787 C 383.681 117.733,382.851 116.509,382.136 116.509 C 381.942 116.509,381.784 115.917,381.784 115.194 C 381.784 114.267,381.559 113.759,381.025 113.472 C 380.607 113.249,380.266 112.750,380.266 112.364 C 380.266 111.978,379.839 111.383,379.317 111.041 C 378.646 110.601,378.368 110.078,378.368 109.254 C 378.368 108.408,378.160 108.034,377.609 107.890 C 377.077 107.751,376.850 107.372,376.850 106.624 C 376.850 105.586,376.015 104.364,375.305 104.364 C 375.111 104.364,374.953 104.023,374.953 103.605 C 374.953 103.107,374.700 102.846,374.215 102.846 C 373.619 102.846,373.456 102.537,373.361 101.233 C 373.264 99.893,373.101 99.600,372.391 99.499 C 371.773 99.411,371.537 99.123,371.537 98.456 C 371.537 97.725,371.340 97.533,370.588 97.533 C 369.731 97.533,369.639 97.384,369.639 95.980 C 369.639 94.760,369.481 94.385,368.902 94.233 C 368.496 94.127,368.112 93.673,368.048 93.225 C 367.975 92.715,367.612 92.365,367.078 92.289 C 366.419 92.195,366.224 91.919,366.224 91.077 C 366.224 90.439,365.927 89.778,365.510 89.486 C 365.118 89.211,364.732 88.647,364.652 88.231 C 364.570 87.797,364.147 87.425,363.658 87.355 C 363.098 87.275,362.808 86.972,362.808 86.466 C 362.808 86.017,362.493 85.615,362.049 85.499 C 361.629 85.389,361.290 84.981,361.290 84.586 C 361.290 84.076,361.018 83.871,360.342 83.871 C 359.618 83.871,359.393 83.674,359.393 83.038 C 359.393 82.580,358.934 81.726,358.373 81.140 C 357.564 80.296,357.485 80.076,357.990 80.076 C 358.341 80.076,358.841 79.734,359.101 79.317 C 359.362 78.899,359.949 78.558,360.405 78.558 C 360.862 78.558,361.571 78.131,361.982 77.609 C 362.437 77.031,363.114 76.660,363.717 76.660 C 364.453 76.660,364.706 76.466,364.706 75.901 C 364.706 75.457,364.959 75.142,365.315 75.142 C 365.651 75.142,366.252 74.727,366.651 74.219 C 367.051 73.711,367.758 73.241,368.224 73.175 C 368.689 73.109,369.239 72.671,369.445 72.201 C 369.651 71.731,370.121 71.347,370.488 71.347 C 370.856 71.347,371.157 71.185,371.157 70.987 C 371.157 70.789,371.596 70.154,372.132 69.575 C 372.669 68.997,373.202 68.049,373.318 67.468 C 373.459 66.765,373.767 66.414,374.241 66.414 C 374.747 66.414,374.953 66.140,374.953 65.465 C 374.953 64.787,375.158 64.516,375.671 64.516 C 376.489 64.516,376.850 63.809,376.850 62.208 C 376.850 61.354,377.023 61.101,377.609 61.101 C 378.256 61.101,378.368 60.848,378.368 59.393 C 378.368 57.970,378.488 57.685,379.087 57.685 C 379.995 57.685,380.266 56.973,380.266 54.582 C 380.266 53.000,380.393 52.647,381.025 52.482 C 382.214 52.171,382.214 29.264,381.025 28.952 C 380.404 28.790,380.265 28.432,380.260 26.996 C 380.253 24.509,379.920 23.529,379.083 23.529 C 378.489 23.529,378.368 23.241,378.368 21.822 C 378.368 20.406,378.247 20.114,377.658 20.114 C 377.119 20.114,376.887 19.737,376.698 18.558 C 376.522 17.452,376.232 16.944,375.701 16.805 C 375.220 16.680,374.953 16.286,374.953 15.705 C 374.953 15.065,374.739 14.801,374.220 14.801 C 373.749 14.801,373.444 14.496,373.366 13.947 C 373.288 13.398,372.940 13.050,372.391 12.972 C 371.842 12.894,371.537 12.589,371.537 12.118 C 371.537 11.589,371.273 11.385,370.588 11.385 C 369.829 11.385,369.639 11.195,369.639 10.436 C 369.639 9.741,369.437 9.488,368.880 9.488 C 368.374 9.488,368.121 9.235,368.121 8.729 C 368.121 8.172,367.868 7.970,367.173 7.970 C 366.414 7.970,366.224 7.780,366.224 7.021 C 366.224 6.345,366.019 6.072,365.509 6.072 C 365.114 6.072,364.706 5.733,364.596 5.313 C 364.439 4.713,364.078 4.554,362.870 4.554 C 361.575 4.554,361.325 4.424,361.222 3.700 C 361.122 2.994,360.828 2.826,359.527 2.732 C 358.343 2.645,357.905 2.434,357.760 1.878 C 357.593 1.239,357.225 1.139,355.064 1.139 C 353.093 1.139,352.562 1.018,352.562 0.569 C 352.562 0.075,350.917 0.000,340.038 0.000 C 329.159 0.000,327.514 0.075,327.514 0.569 C 327.514 1.006,327.029 1.139,325.427 1.139 C 323.613 1.139,323.340 1.235,323.340 1.876 C 323.340 2.472,323.031 2.635,321.727 2.730 C 320.386 2.827,320.093 2.990,319.993 3.700 C 319.890 4.424,319.639 4.554,318.344 4.554 C 317.151 4.554,316.775 4.715,316.624 5.292 C 316.518 5.697,316.064 6.082,315.616 6.146 C 315.106 6.218,314.755 6.581,314.679 7.116 C 314.602 7.664,314.296 7.970,313.826 7.970 C 313.346 7.970,313.093 8.232,313.093 8.729 C 313.093 9.171,312.840 9.488,312.486 9.488 C 311.772 9.488,309.677 11.620,309.677 12.348 C 309.677 12.624,309.293 12.905,308.824 12.972 C 308.275 13.050,307.926 13.398,307.848 13.947 C 307.770 14.496,307.465 14.801,306.994 14.801 C 306.466 14.801,306.262 15.065,306.262 15.750 C 306.262 16.427,306.057 16.698,305.543 16.698 C 304.725 16.698,304.364 17.405,304.364 19.006 C 304.364 19.861,304.191 20.114,303.605 20.114 C 302.961 20.114,302.846 20.367,302.846 21.795 C 302.846 23.250,302.731 23.493,301.992 23.598 C 301.224 23.707,301.127 23.960,301.024 26.132 C 300.929 28.150,300.790 28.576,300.171 28.738 C 299.515 28.909,299.425 29.302,299.379 32.207 C 299.351 34.009,299.253 35.100,299.163 34.630 C 299.022 33.898,298.759 33.776,297.317 33.776 C 295.920 33.776,295.636 33.654,295.636 33.058 C 295.636 32.246,294.930 31.879,293.372 31.879 C 292.628 31.879,292.249 31.651,292.110 31.120 C 291.953 30.519,291.592 30.361,290.384 30.361 C 289.221 30.361,288.802 30.190,288.629 29.647 C 288.391 28.897,286.978 28.463,284.772 28.463 C 283.744 28.463,283.491 28.313,283.491 27.704 C 283.491 27.059,283.238 26.945,281.810 26.945 C 280.355 26.945,280.112 26.830,280.007 26.091 C 279.899 25.326,279.643 25.226,277.554 25.125 C 275.612 25.032,275.189 24.889,275.028 24.271 C 274.868 23.659,274.500 23.529,272.928 23.529 C 271.348 23.529,270.896 23.368,270.277 22.581 C 269.615 21.740,269.245 21.632,267.023 21.632 C 264.769 21.632,264.516 21.555,264.516 20.873 C 264.516 20.191,264.263 20.114,262.040 20.114 C 259.748 20.114,259.537 20.043,259.203 19.165 C 258.860 18.262,258.696 18.216,255.797 18.216 C 254.122 18.216,252.751 18.058,252.751 17.864 C 252.751 16.773,251.481 16.319,248.432 16.319 C 245.829 16.319,245.168 16.191,244.490 15.560 C 243.778 14.897,243.150 14.801,239.529 14.801 C 235.815 14.801,235.364 14.728,235.199 14.099 C 234.944 13.123,233.453 12.903,227.101 12.903 C 222.047 12.903,221.630 12.849,221.252 12.144 C 220.613 10.950,179.170 10.950,178.858 12.144 C 178.670 12.860,178.340 12.903,173.058 12.903 C 166.554 12.903,165.195 13.100,164.881 14.087 C 164.677 14.730,164.232 14.801,160.400 14.801 C 156.580 14.801,156.089 14.878,155.598 15.560 C 155.135 16.202,154.612 16.320,152.193 16.324 C 148.612 16.330,147.628 16.584,147.628 17.502 C 147.628 18.137,147.317 18.216,144.813 18.216 C 141.505 18.216,140.797 18.424,140.797 19.395 C 140.797 20.032,140.494 20.114,138.140 20.114 C 135.737 20.114,135.484 20.186,135.484 20.873 C 135.484 21.553,135.231 21.632,133.057 21.632 C 130.966 21.632,130.506 21.762,129.736 22.574 C 129.032 23.317,128.461 23.518,127.040 23.523 C 125.492 23.528,125.237 23.637,125.237 24.288 C 125.237 24.969,124.984 25.047,122.778 25.047 C 120.471 25.047,120.303 25.106,120.080 25.996 C 119.871 26.828,119.636 26.945,118.175 26.945 C 116.762 26.945,116.509 27.060,116.509 27.704 C 116.509 28.313,116.256 28.463,115.228 28.463 C 112.872 28.463,111.575 28.884,111.575 29.649 C 111.575 30.236,111.285 30.361,109.911 30.361 C 108.567 30.361,108.210 30.506,108.049 31.120 C 107.906 31.667,107.532 31.879,106.708 31.879 C 105.092 31.879,104.364 32.233,104.364 33.019 C 104.364 33.552,103.995 33.729,102.657 33.835 L 100.949 33.971 100.949 31.834 C 100.949 28.758,100.574 27.255,99.753 27.040 C 99.213 26.899,99.051 26.494,99.051 25.284 C 99.051 24.123,98.853 23.588,98.292 23.238 C 97.769 22.911,97.533 22.353,97.533 21.439 C 97.533 20.279,97.415 20.114,96.584 20.114 C 95.710 20.114,95.636 19.977,95.636 18.371 C 95.636 16.946,95.497 16.591,94.877 16.429 C 94.457 16.319,94.118 15.911,94.118 15.516 C 94.118 15.006,93.845 14.801,93.169 14.801 C 92.403 14.801,92.220 14.613,92.220 13.827 C 92.220 12.554,91.578 11.385,90.878 11.385 C 90.573 11.385,90.323 11.044,90.323 10.626 C 90.323 10.116,90.070 9.867,89.552 9.867 C 89.128 9.867,88.670 9.568,88.536 9.203 C 88.201 8.296,87.664 7.982,86.433 7.975 C 85.574 7.971,85.389 7.801,85.389 7.021 C 85.389 6.262,85.199 6.072,84.440 6.072 C 83.754 6.072,83.491 5.868,83.491 5.335 C 83.491 4.739,83.182 4.575,81.879 4.481 C 80.538 4.384,80.245 4.220,80.144 3.510 C 80.039 2.772,79.796 2.657,78.342 2.657 C 76.913 2.657,76.660 2.542,76.660 1.898 C 76.660 1.251,76.407 1.139,74.953 1.139 C 73.688 1.139,73.245 0.991,73.245 0.569 C 73.245 0.074,71.558 0.000,60.342 0.000 C 49.125 0.000,47.438 0.074,47.438 0.569 M65.889 21.595 C 66.908 21.992,68.320 22.534,69.027 22.801 C 78.215 26.262,83.100 40.352,78.256 49.421 C 73.677 57.996,62.267 62.794,54.150 59.557 C 49.712 57.787,47.934 56.638,45.089 53.700 C 33.376 41.606,42.771 20.938,60.006 20.885 C 63.086 20.876,64.472 21.043,65.889 21.595 M348.581 23.325 C 349.739 23.855,350.844 24.288,351.037 24.288 C 352.161 24.288,357.476 30.342,358.867 33.207 L 360.342 36.243 360.342 41.176 L 360.342 46.110 358.864 49.114 C 356.803 53.306,353.323 56.795,349.526 58.479 C 349.004 58.710,347.835 59.230,346.928 59.633 C 344.477 60.723,336.918 60.702,334.756 59.598 C 333.920 59.172,333.001 58.824,332.712 58.824 C 332.422 58.824,331.877 58.482,331.499 58.065 C 331.121 57.647,330.644 57.306,330.438 57.306 C 329.738 57.306,325.951 53.796,324.433 51.742 C 320.507 46.427,320.057 37.694,323.443 32.527 C 323.804 31.976,324.099 31.392,324.099 31.228 C 324.099 31.064,324.518 30.444,325.028 29.850 C 325.539 29.256,326.009 28.658,326.072 28.522 C 328.423 23.416,341.952 20.293,348.581 23.325 M137.940 135.029 C 138.524 135.488,139.320 135.863,139.710 135.863 C 140.099 135.863,140.746 136.192,141.148 136.594 C 141.549 136.995,142.233 137.514,142.666 137.746 C 143.099 137.977,143.454 138.388,143.454 138.657 C 143.454 138.926,143.880 139.548,144.402 140.038 C 144.924 140.528,145.351 141.218,145.351 141.571 C 145.351 141.924,145.735 142.701,146.205 143.298 C 146.930 144.220,147.059 144.845,147.059 147.438 C 147.059 150.031,146.930 150.657,146.205 151.578 C 145.735 152.176,145.349 152.940,145.346 153.277 C 145.335 154.541,141.229 158.866,139.658 159.267 C 139.137 159.400,138.302 159.824,137.805 160.210 C 136.423 161.280,129.527 161.238,128.361 160.152 C 127.913 159.734,127.284 159.393,126.964 159.393 C 125.975 159.393,121.822 156.034,121.822 155.233 C 121.822 155.003,121.567 154.717,121.256 154.598 C 120.946 154.479,120.502 153.678,120.271 152.818 C 120.039 151.959,119.610 150.914,119.318 150.496 C 118.507 149.339,118.636 145.628,119.545 143.932 C 119.962 143.153,120.304 142.303,120.304 142.043 C 120.304 140.165,126.242 135.190,129.646 134.216 C 131.557 133.669,136.874 134.190,137.940 135.029 M272.365 134.778 C 272.744 135.107,273.608 135.562,274.285 135.789 C 276.087 136.393,279.627 140.223,279.935 141.903 C 280.073 142.651,280.344 143.367,280.538 143.493 C 281.601 144.185,281.691 149.374,280.657 150.408 C 280.402 150.664,280.077 151.486,279.937 152.234 C 279.796 152.983,279.343 153.902,278.930 154.276 C 278.517 154.650,278.178 155.125,278.178 155.331 C 278.178 155.690,277.159 156.707,274.963 158.539 C 274.400 159.009,273.527 159.393,273.023 159.393 C 272.519 159.393,272.106 159.547,272.106 159.735 C 272.106 160.987,265.076 161.365,263.188 160.215 C 262.562 159.833,261.601 159.409,261.054 159.272 C 259.310 158.836,254.651 153.864,254.647 152.435 C 254.645 151.983,254.369 151.101,254.032 150.474 C 253.247 149.016,253.253 145.518,254.043 144.023 C 254.374 143.397,254.645 142.513,254.647 142.059 C 254.648 141.606,255.076 140.727,255.598 140.107 C 256.120 139.487,256.546 138.797,256.546 138.573 C 256.546 138.350,256.901 137.977,257.334 137.746 C 257.767 137.514,258.433 137.013,258.814 136.632 C 259.194 136.252,260.035 135.824,260.682 135.682 C 261.330 135.540,261.860 135.271,261.860 135.085 C 261.860 133.906,271.049 133.638,272.365 134.778 M220.683 149.183 C 225.271 149.909,226.902 150.205,233.966 151.595 C 236.420 152.077,240.326 153.170,243.074 154.142 C 243.700 154.364,245.003 154.767,245.970 155.038 C 246.936 155.309,248.217 155.782,248.816 156.088 C 249.415 156.394,250.503 156.772,251.233 156.928 C 251.964 157.084,253.159 157.509,253.890 157.873 C 254.620 158.237,255.987 158.875,256.926 159.292 C 259.419 160.399,262.074 161.728,265.085 163.375 C 266.546 164.175,268.254 165.082,268.880 165.392 C 269.507 165.702,270.319 166.214,270.686 166.530 C 271.052 166.847,271.664 167.291,272.045 167.518 C 272.785 167.960,274.874 169.311,276.046 170.105 C 276.438 170.371,277.405 171.101,278.194 171.727 C 278.983 172.353,280.189 173.292,280.874 173.814 C 286.010 177.726,293.426 185.652,297.441 191.522 C 299.077 193.913,300.695 196.626,301.365 198.102 C 301.792 199.042,302.301 200.066,302.496 200.380 C 302.692 200.693,303.042 201.376,303.275 201.898 C 303.508 202.419,304.019 203.467,304.411 204.226 C 304.803 204.985,305.127 205.924,305.132 206.314 C 305.136 206.703,305.489 207.789,305.916 208.729 C 306.343 209.668,306.924 211.546,307.207 212.903 C 307.490 214.260,307.929 216.139,308.182 217.078 C 308.808 219.398,308.808 234.871,308.182 237.192 C 307.929 238.131,307.476 240.095,307.176 241.556 C 306.875 243.017,306.389 244.725,306.095 245.351 C 305.802 245.977,305.438 247.002,305.287 247.628 C 305.136 248.254,304.709 249.364,304.338 250.095 C 303.967 250.825,302.925 252.956,302.022 254.830 C 300.350 258.299,295.480 265.935,293.990 267.425 C 293.539 267.876,292.486 269.056,291.651 270.046 C 288.172 274.173,280.786 280.912,276.660 283.723 C 275.512 284.505,273.805 285.703,272.865 286.384 C 271.926 287.066,269.916 288.253,268.398 289.022 C 266.880 289.792,265.560 290.547,265.465 290.702 C 265.248 291.053,259.913 293.639,254.649 295.945 C 253.710 296.357,252.148 297.042,251.180 297.468 C 250.211 297.894,248.800 298.358,248.045 298.500 C 247.289 298.642,246.039 299.080,245.267 299.474 C 244.494 299.868,243.600 300.188,243.278 300.186 C 242.957 300.184,241.670 300.516,240.417 300.924 C 237.055 302.019,233.715 302.806,229.032 303.608 C 226.736 304.001,224.282 304.497,223.578 304.710 C 222.291 305.099,216.098 305.650,206.262 306.249 C 203.329 306.427,198.653 306.427,195.825 306.248 C 184.965 305.561,180.000 305.089,177.989 304.553 C 176.841 304.247,174.567 303.823,172.936 303.612 C 171.305 303.400,169.683 303.075,169.331 302.889 C 168.979 302.704,167.666 302.349,166.414 302.102 C 165.161 301.854,163.234 301.322,162.130 300.920 C 161.026 300.519,159.780 300.190,159.360 300.190 C 158.940 300.190,158.050 299.907,157.382 299.561 C 156.714 299.216,155.398 298.711,154.459 298.440 C 151.298 297.527,148.202 296.333,147.598 295.792 C 147.269 295.498,146.770 295.256,146.490 295.256 C 146.210 295.256,144.942 294.765,143.673 294.165 C 142.404 293.564,141.110 292.958,140.797 292.818 C 140.484 292.678,139.545 292.158,138.710 291.662 C 137.875 291.165,135.996 290.135,134.535 289.372 C 133.074 288.609,131.579 287.715,131.212 287.385 C 130.845 287.055,130.239 286.599,129.865 286.371 C 129.491 286.144,128.621 285.617,127.931 285.199 C 126.658 284.428,121.051 280.135,118.975 278.341 C 115.993 275.764,111.233 270.861,109.053 268.121 C 107.725 266.452,106.493 264.906,106.317 264.687 C 104.262 262.144,98.292 251.723,98.292 250.680 C 98.292 250.508,97.965 249.666,97.565 248.808 C 93.008 239.043,92.064 222.080,95.503 211.765 C 95.816 210.825,96.231 209.300,96.425 208.375 C 96.618 207.450,97.007 206.340,97.287 205.909 C 97.568 205.477,98.016 204.440,98.283 203.605 C 98.549 202.770,98.979 201.831,99.238 201.518 C 99.497 201.205,99.817 200.491,99.950 199.932 C 100.082 199.372,100.414 198.689,100.686 198.414 C 100.958 198.138,101.307 197.581,101.461 197.175 C 104.078 190.271,124.585 168.880,128.586 168.880 C 128.787 168.880,129.042 168.643,129.153 168.353 C 129.265 168.063,129.924 167.525,130.617 167.158 C 131.311 166.791,132.509 166.162,133.279 165.760 C 134.049 165.358,134.881 164.785,135.128 164.488 C 135.375 164.190,135.791 163.947,136.054 163.947 C 136.316 163.947,137.516 163.354,138.720 162.629 C 139.924 161.904,141.695 161.015,142.655 160.654 C 143.616 160.294,144.915 159.692,145.541 159.318 C 146.167 158.943,146.899 158.636,147.167 158.635 C 147.435 158.634,148.110 158.335,148.667 157.970 C 149.224 157.604,150.371 157.115,151.215 156.882 C 152.999 156.390,155.821 155.408,158.254 154.432 C 159.194 154.055,160.645 153.640,161.480 153.511 C 162.315 153.382,164.023 152.959,165.275 152.571 C 168.431 151.596,174.008 150.321,176.281 150.057 C 177.324 149.935,179.459 149.574,181.025 149.255 C 188.025 147.828,211.839 147.784,220.683 149.183 " stroke="none" fill="#fbfbfb" fill-rule="evenodd"></path><path id="path3" d="M128.345 135.640 C 125.465 136.852,123.456 138.405,121.615 140.842 C 119.963 143.027,119.148 147.261,119.911 149.688 C 120.112 150.329,120.362 151.281,120.464 151.803 C 120.854 153.776,125.271 158.343,127.478 159.053 C 128.228 159.294,129.082 159.683,129.375 159.917 C 130.233 160.601,135.851 160.417,137.192 159.660 C 137.818 159.307,138.521 159.017,138.755 159.016 C 140.447 159.006,144.012 154.883,145.621 151.074 C 149.488 141.918,137.938 131.600,128.345 135.640 M262.619 135.484 C 261.888 135.884,261.065 136.218,260.791 136.227 C 259.866 136.256,257.656 138.245,256.384 140.193 C 253.132 145.169,254.013 152.890,258.235 156.428 C 258.811 156.911,259.596 157.594,259.979 157.947 C 261.608 159.447,267.845 160.618,269.906 159.810 C 270.386 159.623,271.492 159.278,272.364 159.044 C 273.786 158.663,276.915 156.071,278.385 154.054 C 281.958 149.154,280.570 140.825,275.613 137.420 C 271.686 134.723,265.650 133.824,262.619 135.484 M136.667 136.230 C 139.220 136.937,142.694 139.147,142.694 140.063 C 142.694 140.258,143.065 140.788,143.518 141.241 C 145.493 143.216,145.771 151.946,143.902 153.309 C 143.750 153.420,143.338 153.962,142.987 154.515 C 141.391 157.027,138.264 158.759,133.764 159.624 C 130.501 160.251,124.633 157.103,122.011 153.320 C 120.856 151.653,120.377 145.797,121.165 142.979 C 121.638 141.286,125.937 137.261,127.908 136.664 C 128.840 136.381,130.028 136.014,130.550 135.847 C 132.134 135.341,133.844 135.447,136.667 136.230 M271.738 136.281 C 277.326 138.006,280.414 143.409,279.321 149.549 C 278.676 153.171,275.660 157.120,272.670 158.256 C 269.883 159.316,262.123 158.964,260.765 157.717 C 260.428 157.407,259.597 156.658,258.920 156.051 C 255.869 153.322,254.813 149.941,255.441 144.919 C 256.326 137.843,263.860 133.850,271.738 136.281 M198.292 161.270 C 197.666 161.440,195.914 161.600,194.399 161.625 C 192.148 161.662,191.524 161.809,190.994 162.429 C 190.636 162.846,189.878 163.188,189.309 163.188 C 188.735 163.188,187.824 163.605,187.264 164.124 C 186.708 164.640,185.922 165.166,185.518 165.295 C 184.429 165.640,182.163 168.040,182.163 168.847 C 182.163 169.232,181.797 169.790,181.349 170.087 C 180.136 170.893,180.148 177.048,181.365 178.033 C 181.804 178.389,182.163 178.940,182.163 179.257 C 182.163 179.575,182.505 179.943,182.922 180.076 C 183.340 180.208,183.681 180.565,183.681 180.869 C 183.681 181.172,184.108 181.615,184.630 181.853 C 185.152 182.090,185.579 182.400,185.579 182.540 C 185.579 183.006,189.278 185.199,190.064 185.199 C 190.489 185.199,191.106 185.467,191.433 185.795 C 192.127 186.489,194.044 187.097,195.538 187.097 L 196.584 187.097 196.584 225.930 L 196.584 264.763 197.463 265.588 C 198.071 266.160,198.822 266.414,199.902 266.414 C 202.882 266.414,202.655 269.394,202.673 230.049 C 202.687 198.556,202.757 194.481,203.342 191.091 L 203.994 187.306 205.627 187.027 C 206.526 186.874,207.824 186.400,208.514 185.974 C 209.203 185.548,210.108 185.199,210.525 185.199 C 210.942 185.199,211.690 184.881,212.188 184.492 C 212.686 184.104,213.442 183.677,213.868 183.543 C 214.802 183.251,217.837 180.564,217.837 180.030 C 217.837 179.821,218.221 179.237,218.691 178.733 C 219.460 177.907,219.545 177.435,219.545 173.948 C 219.545 170.459,219.461 169.991,218.691 169.171 C 218.221 168.671,217.837 168.120,217.837 167.946 C 217.837 167.578,215.338 165.085,214.969 165.085 C 214.832 165.085,214.213 164.658,213.593 164.137 C 212.973 163.615,212.108 163.188,211.671 163.188 C 211.233 163.188,210.546 162.889,210.142 162.524 C 209.634 162.064,208.458 161.783,206.317 161.611 C 204.617 161.475,202.372 161.272,201.328 161.161 C 200.285 161.050,198.918 161.099,198.292 161.270 M208.361 163.407 C 223.128 168.567,221.836 180.505,205.977 185.420 C 204.151 185.986,202.497 186.642,202.302 186.877 C 202.091 187.131,201.821 203.099,201.638 226.195 L 201.328 265.085 200.238 265.210 C 198.215 265.441,198.305 267.117,198.102 225.526 L 197.913 186.573 195.785 185.749 C 194.614 185.295,192.998 184.801,192.192 184.650 C 191.387 184.499,190.295 184.071,189.766 183.698 C 189.237 183.326,188.458 182.914,188.035 182.783 C 185.588 182.025,181.795 176.797,181.731 174.094 C 181.533 165.758,197.151 159.491,208.361 163.407 " stroke="none" fill="#a4acac" fill-rule="evenodd"></path><path id="path4" d="M54.080 21.676 C 41.054 27.022,36.239 39.156,42.652 50.474 C 48.899 61.501,65.166 63.779,73.973 54.860 C 77.959 50.822,79.054 48.819,79.881 44.053 C 81.385 35.386,76.370 25.567,69.027 22.801 C 68.320 22.534,66.908 21.992,65.889 21.595 C 63.201 20.548,56.721 20.592,54.080 21.676 M62.201 22.239 C 62.870 22.573,64.476 22.941,65.770 23.057 C 67.455 23.208,68.262 23.466,68.617 23.968 C 68.890 24.353,69.347 24.668,69.632 24.668 C 69.917 24.668,70.633 25.066,71.223 25.552 C 71.813 26.038,72.595 26.545,72.960 26.679 C 73.325 26.812,73.624 27.171,73.624 27.477 C 73.624 27.782,73.966 28.141,74.383 28.273 C 74.801 28.406,75.143 28.801,75.143 29.153 C 75.143 29.504,75.570 30.287,76.092 30.894 C 76.613 31.500,77.040 32.312,77.040 32.697 C 77.040 33.082,77.424 33.781,77.894 34.250 C 78.698 35.055,78.748 35.413,78.748 40.427 C 78.748 45.372,78.687 45.826,77.894 46.835 C 77.424 47.432,77.040 48.212,77.040 48.569 C 77.040 48.926,76.613 49.714,76.092 50.320 C 75.570 50.927,75.143 51.722,75.143 52.087 C 75.143 52.453,74.882 52.751,74.564 52.751 C 74.245 52.751,73.823 53.178,73.624 53.700 C 73.426 54.222,73.071 54.649,72.835 54.649 C 72.599 54.649,71.898 55.076,71.278 55.598 C 70.658 56.120,69.834 56.546,69.446 56.546 C 69.059 56.546,68.633 56.888,68.501 57.306 C 68.308 57.914,67.927 58.065,66.582 58.065 C 65.659 58.065,64.005 58.406,62.907 58.823 C 60.496 59.740,59.102 59.783,57.875 58.979 C 57.368 58.646,55.915 58.280,54.647 58.165 C 52.992 58.015,52.241 57.770,51.987 57.296 C 51.793 56.932,51.031 56.522,50.295 56.384 C 49.492 56.233,48.956 55.912,48.956 55.581 C 48.956 55.277,48.786 55.028,48.577 55.028 C 47.828 55.028,44.085 50.865,43.651 49.548 C 43.407 48.808,42.983 48.074,42.710 47.916 C 41.304 47.102,41.460 34.297,42.893 32.939 C 43.268 32.583,43.688 31.779,43.826 31.153 C 43.967 30.510,44.394 29.914,44.808 29.783 C 45.211 29.655,45.541 29.220,45.541 28.817 C 45.541 28.399,45.801 28.083,46.146 28.083 C 46.478 28.083,46.840 27.742,46.949 27.324 C 47.058 26.907,47.374 26.565,47.651 26.565 C 47.928 26.565,48.393 26.225,48.684 25.809 C 48.975 25.393,49.760 24.944,50.427 24.810 C 51.094 24.677,51.798 24.273,51.990 23.913 C 52.239 23.449,52.996 23.199,54.594 23.054 C 55.833 22.941,57.335 22.594,57.930 22.281 C 59.381 21.519,60.732 21.506,62.201 22.239 M336.243 22.372 C 333.263 22.937,326.861 26.809,326.072 28.522 C 326.009 28.658,325.539 29.256,325.028 29.850 C 324.518 30.444,324.099 31.064,324.099 31.228 C 324.099 31.392,323.804 31.976,323.443 32.527 C 320.057 37.694,320.507 46.427,324.433 51.742 C 325.951 53.796,329.738 57.306,330.438 57.306 C 330.644 57.306,331.121 57.647,331.499 58.065 C 331.877 58.482,332.422 58.824,332.712 58.824 C 333.001 58.824,333.920 59.172,334.756 59.598 C 336.918 60.702,344.477 60.723,346.928 59.633 C 347.835 59.230,349.004 58.710,349.526 58.479 C 353.323 56.795,356.803 53.306,358.864 49.114 L 360.342 46.110 360.342 41.176 L 360.342 36.243 358.867 33.207 C 357.476 30.342,352.161 24.288,351.037 24.288 C 350.844 24.288,349.739 23.855,348.581 23.325 C 346.237 22.253,339.578 21.738,336.243 22.372 M346.591 23.909 C 346.949 24.326,347.657 24.668,348.165 24.668 C 348.672 24.668,349.595 25.095,350.215 25.617 C 350.836 26.139,351.703 26.565,352.142 26.565 C 352.688 26.565,352.941 26.806,352.941 27.324 C 352.941 27.742,353.132 28.083,353.364 28.083 C 353.931 28.083,356.357 30.758,356.357 31.383 C 356.357 31.656,356.722 32.244,357.168 32.690 C 357.651 33.173,358.055 34.166,358.165 35.141 C 358.269 36.068,358.659 37.060,359.061 37.424 C 360.102 38.366,360.104 44.071,359.064 45.111 C 358.674 45.500,358.242 46.577,358.103 47.503 C 357.960 48.458,357.527 49.465,357.104 49.827 C 356.693 50.179,356.357 50.716,356.357 51.021 C 356.357 51.326,356.133 51.712,355.859 51.879 C 355.586 52.046,355.116 52.544,354.815 52.987 C 354.087 54.055,350.800 56.546,350.117 56.546 C 349.820 56.546,349.468 56.888,349.336 57.306 C 349.145 57.907,348.762 58.065,347.493 58.065 C 346.612 58.065,345.221 58.406,344.402 58.824 C 342.504 59.791,338.344 59.884,337.346 58.981 C 336.980 58.650,335.942 58.285,335.039 58.170 C 334.136 58.054,333.093 57.644,332.722 57.258 C 332.351 56.872,331.621 56.449,331.099 56.318 C 330.577 56.187,329.978 55.758,329.768 55.364 C 329.557 54.971,329.238 54.649,329.059 54.649 C 328.572 54.649,326.556 52.660,326.269 51.898 C 326.132 51.532,325.758 51.233,325.439 51.233 C 325.072 51.233,324.858 50.884,324.858 50.285 C 324.858 49.763,324.473 48.952,324.004 48.482 C 323.187 47.665,323.150 47.354,323.150 41.357 C 323.150 35.379,323.190 35.044,324.004 34.170 C 324.473 33.666,324.858 32.948,324.858 32.574 C 324.858 31.820,329.743 26.565,330.444 26.565 C 330.687 26.565,331.116 26.239,331.396 25.839 C 331.675 25.439,332.528 24.996,333.290 24.853 C 334.052 24.710,334.969 24.268,335.328 23.871 C 336.340 22.754,345.629 22.785,346.591 23.909 M129.646 134.216 C 126.268 135.183,120.304 140.163,120.304 142.017 C 120.304 142.263,120.855 141.705,121.530 140.777 C 127.438 132.643,138.448 132.413,144.060 140.307 C 144.770 141.306,145.351 141.854,145.351 141.526 C 145.351 141.198,144.924 140.528,144.402 140.038 C 143.880 139.548,143.454 138.926,143.454 138.657 C 143.454 138.388,143.099 137.977,142.666 137.746 C 142.233 137.514,141.549 136.995,141.148 136.594 C 140.746 136.192,140.099 135.863,139.710 135.863 C 139.320 135.863,138.524 135.488,137.940 135.029 C 136.874 134.190,131.557 133.669,129.646 134.216 M263.093 134.370 C 262.415 134.577,261.860 134.899,261.860 135.085 C 261.860 135.271,261.330 135.540,260.682 135.682 C 260.035 135.824,259.194 136.252,258.814 136.632 C 258.433 137.013,257.767 137.514,257.334 137.746 C 256.901 137.977,256.546 138.350,256.546 138.573 C 256.546 138.797,256.120 139.487,255.598 140.107 C 255.076 140.727,254.648 141.606,254.647 142.059 C 254.645 142.513,254.374 143.397,254.043 144.023 C 253.253 145.518,253.247 149.016,254.032 150.474 C 254.369 151.101,254.645 151.997,254.647 152.467 C 254.648 152.936,254.978 153.649,255.379 154.051 C 255.781 154.453,256.300 155.137,256.533 155.572 C 257.112 156.654,260.644 159.398,261.419 159.369 C 261.908 159.350,261.878 159.275,261.282 159.033 C 260.575 158.747,258.010 156.677,257.258 155.787 C 252.631 150.311,253.044 142.838,258.254 137.738 C 259.089 136.921,259.950 136.250,260.166 136.248 C 260.383 136.245,261.237 135.871,262.064 135.417 C 267.554 132.401,279.696 137.278,279.696 142.500 C 279.696 142.885,279.798 143.099,279.922 142.975 C 280.929 141.968,276.723 136.606,274.285 135.789 C 273.608 135.562,272.744 135.107,272.365 134.778 C 271.535 134.060,265.043 133.774,263.093 134.370 M145.536 143.074 C 145.690 143.596,145.967 144.185,146.153 144.383 C 146.699 144.968,146.524 149.987,145.920 151.044 C 145.091 152.494,145.250 152.793,146.205 151.578 C 147.487 149.948,147.458 144.885,146.158 143.254 C 145.296 142.174,145.269 142.166,145.536 143.074 M119.450 144.075 C 118.533 145.879,118.578 149.141,119.545 150.945 C 120.430 152.597,120.565 151.763,119.734 149.774 C 119.004 148.025,119.012 146.369,119.757 144.927 C 120.083 144.297,120.296 143.554,120.232 143.274 C 120.167 142.995,119.815 143.355,119.450 144.075 M280.335 144.307 C 280.736 145.410,280.720 149.141,280.311 150.000 C 280.111 150.419,280.147 150.664,280.408 150.664 C 280.635 150.664,280.945 150.194,281.098 149.620 C 281.686 147.407,281.253 143.454,280.423 143.454 C 280.171 143.454,280.139 143.768,280.335 144.307 M189.374 148.374 C 186.347 148.539,182.590 148.936,181.025 149.255 C 179.459 149.574,177.324 149.935,176.281 150.057 C 174.008 150.321,168.431 151.596,165.275 152.571 C 164.023 152.959,162.315 153.382,161.480 153.511 C 160.645 153.640,159.194 154.055,158.254 154.432 C 155.821 155.408,152.999 156.390,151.215 156.882 C 150.371 157.115,149.224 157.604,148.667 157.970 C 148.110 158.335,147.435 158.634,147.167 158.635 C 146.899 158.636,146.167 158.943,145.541 159.318 C 144.915 159.692,143.616 160.294,142.655 160.654 C 141.695 161.015,139.924 161.904,138.720 162.629 C 137.516 163.354,136.316 163.947,136.054 163.947 C 135.791 163.947,135.375 164.190,135.128 164.488 C 134.881 164.785,134.049 165.358,133.279 165.760 C 132.509 166.162,131.311 166.791,130.617 167.158 C 129.924 167.525,129.265 168.063,129.153 168.353 C 129.042 168.643,128.787 168.880,128.586 168.880 C 124.585 168.880,104.078 190.271,101.461 197.175 C 101.307 197.581,100.958 198.138,100.686 198.414 C 100.414 198.689,100.082 199.372,99.950 199.932 C 99.817 200.491,99.497 201.205,99.238 201.518 C 98.979 201.831,98.549 202.770,98.283 203.605 C 98.016 204.440,97.568 205.477,97.287 205.909 C 97.007 206.340,96.618 207.450,96.425 208.375 C 96.231 209.300,95.816 210.825,95.503 211.765 C 92.064 222.080,93.008 239.043,97.565 248.808 C 97.965 249.666,98.292 250.508,98.292 250.680 C 98.292 251.723,104.262 262.144,106.317 264.687 C 106.493 264.906,107.725 266.452,109.053 268.121 C 111.233 270.861,115.993 275.764,118.975 278.341 C 121.051 280.135,126.658 284.428,127.931 285.199 C 128.621 285.617,129.491 286.144,129.865 286.371 C 130.239 286.599,130.845 287.055,131.212 287.385 C 131.579 287.715,133.074 288.609,134.535 289.372 C 135.996 290.135,137.875 291.165,138.710 291.662 C 139.545 292.158,140.484 292.678,140.797 292.818 C 141.110 292.958,142.404 293.564,143.673 294.165 C 144.942 294.765,146.210 295.256,146.490 295.256 C 146.770 295.256,147.269 295.498,147.598 295.792 C 148.202 296.333,151.298 297.527,154.459 298.440 C 155.398 298.711,156.714 299.216,157.382 299.561 C 158.050 299.907,158.940 300.190,159.360 300.190 C 159.780 300.190,161.026 300.519,162.130 300.920 C 163.234 301.322,165.161 301.854,166.414 302.102 C 167.666 302.349,168.979 302.704,169.331 302.889 C 169.683 303.075,171.305 303.400,172.936 303.612 C 174.567 303.823,176.841 304.247,177.989 304.553 C 180.000 305.089,184.965 305.561,195.825 306.248 C 198.653 306.427,203.329 306.427,206.262 306.249 C 216.098 305.650,222.291 305.099,223.578 304.710 C 224.282 304.497,226.736 304.001,229.032 303.608 C 233.715 302.806,237.055 302.019,240.417 300.924 C 241.670 300.516,242.957 300.184,243.278 300.186 C 243.600 300.188,244.494 299.868,245.267 299.474 C 246.039 299.080,247.289 298.642,248.045 298.500 C 248.800 298.358,250.211 297.894,251.180 297.468 C 252.148 297.042,253.710 296.357,254.649 295.945 C 259.913 293.639,265.248 291.053,265.465 290.702 C 265.560 290.547,266.880 289.792,268.398 289.022 C 269.916 288.253,271.926 287.066,272.865 286.384 C 273.805 285.703,275.512 284.505,276.660 283.723 C 280.786 280.912,288.172 274.173,291.651 270.046 C 292.486 269.056,293.539 267.876,293.990 267.425 C 295.480 265.935,300.350 258.299,302.022 254.830 C 302.925 252.956,303.967 250.825,304.338 250.095 C 304.709 249.364,305.136 248.254,305.287 247.628 C 305.438 247.002,305.802 245.977,306.095 245.351 C 306.389 244.725,306.875 243.017,307.176 241.556 C 307.476 240.095,307.929 238.131,308.182 237.192 C 308.808 234.871,308.808 219.398,308.182 217.078 C 307.929 216.139,307.490 214.260,307.207 212.903 C 306.924 211.546,306.343 209.668,305.916 208.729 C 305.489 207.789,305.136 206.703,305.132 206.314 C 305.127 205.924,304.803 204.985,304.411 204.226 C 304.019 203.467,303.508 202.419,303.275 201.898 C 303.042 201.376,302.692 200.693,302.496 200.380 C 302.301 200.066,301.792 199.042,301.365 198.102 C 299.210 193.356,293.950 186.307,288.384 180.705 C 285.144 177.444,282.720 175.220,280.874 173.814 C 280.189 173.292,278.983 172.353,278.194 171.727 C 277.405 171.101,276.438 170.371,276.046 170.105 C 274.874 169.311,272.785 167.960,272.045 167.518 C 271.664 167.291,271.052 166.847,270.686 166.530 C 270.319 166.214,269.507 165.702,268.880 165.392 C 268.254 165.082,266.546 164.175,265.085 163.375 C 262.074 161.728,259.419 160.399,256.926 159.292 C 255.987 158.875,254.620 158.237,253.890 157.873 C 253.159 157.509,251.964 157.084,251.233 156.928 C 250.503 156.772,249.415 156.394,248.816 156.088 C 248.217 155.782,246.936 155.309,245.970 155.038 C 245.003 154.767,243.700 154.364,243.074 154.142 C 240.326 153.170,236.420 152.077,233.966 151.595 C 226.902 150.205,225.271 149.909,220.683 149.183 C 214.983 148.282,198.742 147.862,189.374 148.374 M214.042 149.485 C 214.042 150.161,215.468 150.404,220.738 150.627 C 225.173 150.814,226.238 150.973,226.865 151.540 C 227.433 152.054,228.513 152.283,231.174 152.455 C 233.728 152.619,234.991 152.877,235.674 153.373 C 236.195 153.753,237.631 154.179,238.864 154.320 C 240.260 154.481,241.369 154.841,241.805 155.277 C 242.290 155.762,243.062 155.977,244.318 155.977 C 245.639 155.977,246.301 156.176,246.758 156.709 C 247.121 157.133,248.145 157.555,249.193 157.712 C 250.188 157.861,251.342 158.300,251.759 158.688 C 252.175 159.076,252.995 159.393,253.582 159.393 C 254.169 159.393,254.967 159.711,255.356 160.100 C 255.745 160.489,256.727 160.931,257.538 161.082 C 258.349 161.233,259.319 161.684,259.692 162.083 C 260.066 162.482,260.693 162.808,261.086 162.808 C 261.480 162.808,262.309 163.235,262.929 163.757 C 263.549 164.279,264.338 164.706,264.682 164.706 C 265.026 164.706,265.673 165.047,266.122 165.465 C 266.570 165.882,267.208 166.224,267.539 166.224 C 267.871 166.224,268.439 166.570,268.801 166.993 C 269.164 167.417,269.955 167.862,270.560 167.983 C 271.199 168.111,271.738 168.504,271.847 168.921 C 271.951 169.316,272.330 169.639,272.691 169.639 C 273.052 169.639,273.743 170.066,274.227 170.588 C 274.710 171.110,275.444 171.537,275.858 171.537 C 276.271 171.537,276.712 171.862,276.838 172.258 C 276.964 172.655,277.488 173.085,278.002 173.214 C 278.517 173.343,278.937 173.702,278.937 174.011 C 278.937 174.320,279.102 174.573,279.304 174.573 C 279.505 174.573,280.165 175.043,280.771 175.617 C 281.376 176.191,282.320 176.982,282.867 177.375 C 285.091 178.970,292.236 186.645,292.713 187.951 C 292.846 188.316,293.217 188.615,293.536 188.615 C 293.856 188.615,294.118 188.861,294.118 189.163 C 294.118 189.464,294.440 189.936,294.835 190.212 C 295.229 190.489,295.818 191.352,296.143 192.131 C 296.469 192.911,296.898 193.548,297.097 193.548 C 297.296 193.548,297.638 194.061,297.856 194.687 C 298.074 195.313,298.518 195.825,298.842 195.825 C 299.241 195.825,299.431 196.187,299.431 196.949 C 299.431 197.567,299.752 198.378,300.146 198.752 C 300.539 199.125,300.981 199.994,301.128 200.682 C 301.276 201.371,301.723 202.137,302.121 202.386 C 302.545 202.651,302.846 203.266,302.846 203.868 C 302.846 204.987,303.563 206.831,303.997 206.831 C 304.145 206.831,304.385 207.728,304.530 208.824 C 304.675 209.919,305.102 211.157,305.479 211.575 C 305.995 212.146,306.218 213.212,306.380 215.877 C 306.534 218.391,306.795 219.713,307.283 220.431 C 308.309 221.942,308.304 232.334,307.276 233.849 C 306.773 234.590,306.523 235.890,306.364 238.593 C 306.189 241.559,306.007 242.412,305.471 242.792 C 305.035 243.101,304.704 244.022,304.531 245.404 C 304.370 246.692,303.983 247.819,303.555 248.247 C 303.165 248.637,302.846 249.459,302.846 250.073 C 302.846 250.724,302.555 251.397,302.150 251.686 C 301.767 251.959,301.345 252.732,301.213 253.404 C 301.081 254.076,300.626 254.972,300.202 255.396 C 299.778 255.820,299.431 256.588,299.431 257.102 C 299.431 257.649,299.116 258.206,298.672 258.444 C 298.254 258.667,297.913 259.087,297.913 259.377 C 297.913 259.667,297.486 260.411,296.964 261.031 C 296.442 261.652,296.015 262.317,296.015 262.510 C 296.015 262.703,295.631 263.218,295.161 263.654 C 294.692 264.090,293.711 265.274,292.982 266.284 C 292.252 267.295,291.441 268.258,291.179 268.425 C 290.917 268.592,290.702 269.061,290.702 269.469 C 290.702 269.956,290.443 270.209,289.943 270.209 C 289.453 270.209,289.184 270.462,289.184 270.923 C 289.184 271.328,288.842 271.728,288.397 271.844 C 287.964 271.957,287.517 272.404,287.404 272.837 C 287.291 273.270,286.966 273.624,286.682 273.624 C 286.398 273.624,285.886 274.051,285.544 274.573 C 285.202 275.095,284.686 275.522,284.397 275.522 C 284.107 275.522,283.871 275.863,283.871 276.281 C 283.871 276.698,283.646 277.040,283.370 277.040 C 283.095 277.040,282.342 277.509,281.697 278.083 C 281.052 278.657,279.829 279.554,278.980 280.076 C 278.130 280.598,277.334 281.324,277.212 281.689 C 277.089 282.054,276.665 282.353,276.269 282.353 C 275.873 282.353,275.366 282.694,275.142 283.112 C 274.919 283.529,274.478 283.871,274.163 283.871 C 273.848 283.871,273.163 284.298,272.641 284.820 C 272.119 285.342,271.454 285.769,271.162 285.769 C 270.870 285.769,270.408 286.087,270.135 286.477 C 269.863 286.866,269.083 287.307,268.403 287.456 C 267.723 287.606,266.991 288.055,266.777 288.456 C 266.557 288.867,265.986 289.184,265.466 289.184 C 264.960 289.184,264.240 289.503,263.867 289.893 C 263.493 290.282,262.563 290.803,261.798 291.050 C 261.034 291.296,260.323 291.722,260.218 291.995 C 260.113 292.268,259.335 292.603,258.489 292.738 C 257.515 292.894,256.801 293.262,256.545 293.741 C 256.261 294.272,255.750 294.497,254.829 294.497 C 253.928 294.497,253.368 294.735,253.043 295.256 C 252.723 295.768,252.158 296.015,251.307 296.015 C 250.020 296.015,248.586 296.583,248.139 297.269 C 248.002 297.479,246.897 297.785,245.682 297.950 C 244.417 298.122,243.290 298.502,243.043 298.840 C 242.774 299.207,242.026 299.431,241.064 299.431 C 239.405 299.431,237.545 299.997,237.160 300.620 C 237.030 300.831,235.444 301.138,233.635 301.303 C 231.603 301.488,230.095 301.824,229.689 302.182 C 229.232 302.585,227.765 302.837,224.858 303.013 C 220.768 303.261,218.596 303.745,218.596 304.410 C 218.596 305.116,184.390 304.816,183.603 304.104 C 183.077 303.627,181.635 303.361,177.960 303.060 C 174.499 302.777,172.927 302.499,172.699 302.128 C 172.484 301.778,171.363 301.534,169.398 301.408 C 167.216 301.268,166.143 301.010,165.375 300.443 C 164.668 299.920,163.558 299.618,161.956 299.513 C 160.418 299.412,159.420 299.150,159.121 298.770 C 158.868 298.447,157.797 298.047,156.742 297.880 C 155.687 297.713,154.377 297.225,153.831 296.796 C 153.285 296.366,152.320 296.015,151.686 296.015 C 151.053 296.015,150.234 295.744,149.867 295.412 C 149.501 295.080,148.504 294.652,147.653 294.460 C 146.802 294.269,145.765 293.772,145.349 293.356 C 144.932 292.940,144.086 292.600,143.467 292.600 C 142.738 292.600,142.202 292.338,141.944 291.857 C 141.722 291.441,140.960 291.004,140.213 290.864 C 139.479 290.726,138.707 290.292,138.496 289.899 C 138.261 289.459,137.703 289.184,137.047 289.184 C 136.461 289.184,135.676 288.847,135.303 288.435 C 134.930 288.023,134.289 287.579,133.878 287.449 C 133.468 287.318,132.807 286.887,132.410 286.490 C 132.014 286.093,131.359 285.769,130.955 285.769 C 130.552 285.769,130.114 285.427,129.981 285.009 C 129.849 284.592,129.420 284.250,129.028 284.250 C 128.637 284.250,128.077 283.909,127.785 283.493 C 127.494 283.076,126.715 282.547,126.056 282.317 C 125.397 282.087,124.858 281.663,124.858 281.374 C 124.858 281.086,124.431 280.742,123.909 280.611 C 123.387 280.480,122.960 280.130,122.960 279.833 C 122.960 279.536,122.661 279.184,122.296 279.050 C 120.831 278.513,109.759 267.404,109.177 265.887 C 109.048 265.551,108.684 265.275,108.368 265.275 C 108.053 265.275,107.686 264.844,107.554 264.316 C 107.421 263.789,106.991 263.185,106.598 262.975 C 106.198 262.761,105.882 262.185,105.882 261.670 C 105.882 261.147,105.565 260.578,105.149 260.355 C 104.746 260.139,104.294 259.578,104.146 259.109 C 103.997 258.639,103.559 258.031,103.171 257.758 C 102.784 257.486,102.467 256.852,102.467 256.350 C 102.467 255.848,102.139 255.132,101.739 254.759 C 101.338 254.385,100.889 253.567,100.740 252.941 C 100.591 252.315,100.172 251.461,99.809 251.044 C 99.446 250.626,99.055 249.542,98.941 248.634 C 98.819 247.661,98.410 246.681,97.944 246.247 C 97.341 245.686,97.154 245.048,97.154 243.558 C 97.154 242.061,96.956 241.395,96.309 240.706 C 95.016 239.330,94.964 215.111,96.251 213.729 C 96.835 213.103,97.107 212.196,97.251 210.397 C 97.385 208.724,97.650 207.778,98.069 207.472 C 98.410 207.222,98.797 206.352,98.929 205.537 C 99.062 204.723,99.485 203.741,99.870 203.356 C 100.254 202.971,100.569 202.238,100.569 201.727 C 100.569 201.215,100.800 200.660,101.083 200.493 C 101.712 200.122,102.467 198.737,102.467 197.955 C 102.467 197.638,102.894 196.951,103.416 196.429 C 103.937 195.907,104.364 195.151,104.364 194.748 C 104.364 194.336,104.695 193.930,105.123 193.818 C 105.582 193.698,105.882 193.300,105.882 192.813 C 105.882 192.369,106.133 191.910,106.440 191.792 C 106.747 191.675,107.208 190.998,107.465 190.288 C 107.721 189.578,108.239 188.900,108.615 188.781 C 108.990 188.661,109.298 188.245,109.298 187.856 C 109.298 187.466,109.639 187.040,110.057 186.907 C 110.474 186.775,110.816 186.485,110.816 186.263 C 110.816 186.042,112.353 184.359,114.231 182.522 C 116.110 180.686,117.647 179.000,117.647 178.776 C 117.647 178.552,117.899 178.368,118.208 178.368 C 118.516 178.368,119.036 177.959,119.364 177.459 C 119.691 176.959,120.293 176.463,120.701 176.356 C 121.109 176.249,121.442 175.890,121.442 175.557 C 121.442 175.197,121.763 174.953,122.237 174.953 C 122.712 174.953,123.111 174.648,123.230 174.194 C 123.339 173.776,123.639 173.435,123.898 173.435 C 124.156 173.435,124.828 173.008,125.391 172.486 C 125.954 171.964,126.658 171.537,126.956 171.537 C 127.253 171.537,127.776 171.110,128.118 170.588 C 128.460 170.066,129.030 169.639,129.384 169.639 C 129.738 169.639,130.372 169.319,130.793 168.927 C 131.213 168.535,131.920 168.099,132.363 167.959 C 132.806 167.818,133.274 167.370,133.403 166.964 C 133.551 166.497,133.979 166.224,134.561 166.224 C 135.068 166.224,135.825 165.882,136.243 165.465 C 136.660 165.047,137.330 164.706,137.732 164.706 C 138.133 164.706,138.944 164.301,139.534 163.806 C 140.124 163.311,141.148 162.789,141.809 162.645 C 142.470 162.500,143.098 162.154,143.206 161.874 C 143.313 161.595,144.105 161.247,144.965 161.102 C 145.875 160.948,146.718 160.535,146.980 160.115 C 147.266 159.657,147.862 159.393,148.609 159.393 C 149.283 159.393,150.066 159.085,150.437 158.675 C 150.844 158.226,151.867 157.859,153.168 157.697 C 154.616 157.516,155.387 157.215,155.704 156.707 C 156.050 156.153,156.595 155.977,157.966 155.977 C 159.266 155.977,159.985 155.765,160.531 155.218 C 161.015 154.734,161.806 154.456,162.713 154.450 C 164.734 154.437,167.085 153.834,167.542 153.211 C 167.801 152.857,169.048 152.610,171.272 152.472 C 173.788 152.315,174.805 152.090,175.390 151.559 C 176.047 150.963,177.009 150.825,181.619 150.664 C 186.138 150.507,187.185 150.361,187.735 149.810 C 188.471 149.073,214.042 148.757,214.042 149.485 M120.315 153.009 C 120.302 153.733,121.414 154.993,121.761 154.646 C 121.887 154.521,121.809 154.299,121.588 154.154 C 121.368 154.009,120.994 153.548,120.757 153.131 C 120.400 152.502,120.325 152.481,120.315 153.009 M144.028 154.673 C 143.426 155.626,142.410 156.770,141.770 157.217 C 141.131 157.663,140.522 158.136,140.417 158.268 C 138.940 160.141,131.049 161.294,129.092 159.923 C 128.029 159.179,127.469 159.560,128.491 160.333 C 129.663 161.221,136.619 161.128,137.805 160.210 C 138.302 159.824,139.137 159.400,139.658 159.267 C 141.121 158.894,145.334 154.560,145.346 153.416 C 145.354 152.673,145.198 152.822,144.028 154.673 M278.778 153.748 C 278.377 154.137,278.136 154.543,278.242 154.650 C 278.349 154.756,278.747 154.500,279.127 154.080 C 280.020 153.093,279.732 152.820,278.778 153.748 M121.822 155.389 C 121.822 156.106,126.145 159.401,127.043 159.369 C 127.502 159.352,127.416 159.230,126.758 158.967 C 126.238 158.760,125.674 158.344,125.506 158.043 C 125.337 157.742,124.961 157.495,124.671 157.495 C 124.380 157.495,123.919 157.196,123.646 156.831 C 123.015 155.986,121.822 155.043,121.822 155.389 M276.077 156.978 C 275.041 157.927,273.852 158.847,273.435 159.024 C 272.833 159.278,272.806 159.350,273.307 159.369 C 273.655 159.382,274.400 159.009,274.963 158.539 C 277.112 156.746,278.292 155.585,278.129 155.422 C 278.036 155.329,277.113 156.029,276.077 156.978 M262.239 159.573 C 262.239 159.672,262.743 160.013,263.359 160.332 C 265.341 161.357,272.106 160.896,272.106 159.735 C 272.106 159.241,271.198 159.314,270.661 159.852 C 270.033 160.479,264.705 160.492,264.080 159.867 C 263.628 159.415,262.239 159.193,262.239 159.573 " stroke="none" fill="#c5c9cd" fill-rule="evenodd"></path></g></svg>