<svg width="235" height="504" viewBox="0 0 235 504" fill="none" xmlns="http://www.w3.org/2000/svg">
<g clip-path="url(#clip0_5_32)">
<rect width="282" height="346.779" rx="10" transform="matrix(0.83205 -0.5547 0 1 0 156.425)" fill="url(#paint0_linear_5_32)"/>
<path fill-rule="evenodd" clip-rule="evenodd" d="M16.7881 176.944C16.7881 171.581 20.4055 164.822 24.8678 161.847L49.9149 145.149C54.3773 142.174 57.9947 144.11 57.9947 149.473V179.576C57.9947 184.939 54.3772 191.698 49.9149 194.673L24.8678 211.371C20.4055 214.346 16.7881 212.41 16.7881 207.047V176.944ZM167.071 82.5818C167.071 80.9729 168.156 78.9451 169.495 78.0527L214.741 47.8884C216.08 46.9959 217.165 47.5767 217.165 49.1856V53.0699C217.165 54.6788 216.08 56.7065 214.741 57.599L169.495 87.7633C168.156 88.6557 167.071 88.075 167.071 86.466V82.5818ZM19.212 238.447C17.8733 239.339 16.7881 241.367 16.7881 242.976V246.86C16.7881 248.469 17.8733 249.05 19.212 248.158L214.741 117.805C216.08 116.912 217.165 114.885 217.165 113.276V109.391C217.165 107.783 216.08 107.202 214.741 108.094L19.212 238.447ZM178.382 88.6355C178.382 87.0266 179.468 84.9989 180.806 84.1064L214.741 61.4832C216.08 60.5907 217.165 61.1715 217.165 62.7804V66.6647C217.165 68.2736 216.08 70.3014 214.741 71.1938L180.806 93.817C179.468 94.7095 178.382 94.1287 178.382 92.5198V88.6355ZM19.212 252.042C17.8733 252.934 16.7881 254.962 16.7881 256.571V260.455C16.7881 262.064 17.8733 262.645 19.212 261.752L139.6 181.494C140.939 180.601 142.024 178.574 142.024 176.965V173.08C142.024 171.472 140.939 170.891 139.6 171.783L19.212 252.042ZM16.7881 289.587C16.7881 287.978 17.8733 285.95 19.212 285.058L214.741 154.705C216.08 153.813 217.165 154.393 217.165 156.002V159.887C217.165 161.495 216.08 163.523 214.741 164.416L19.212 294.769C17.8733 295.661 16.7881 295.08 16.7881 293.471V289.587ZM19.212 298.653C17.8733 299.545 16.7881 301.573 16.7881 303.182V307.066C16.7881 308.675 17.8733 309.256 19.212 308.363L214.741 178.01C216.08 177.118 217.165 175.09 217.165 173.481V169.597C217.165 167.988 216.08 167.407 214.741 168.3L19.212 298.653ZM16.7881 316.777C16.7881 315.168 17.8733 313.14 19.212 312.248L214.741 181.895C216.08 181.002 217.165 181.583 217.165 183.192V187.076C217.165 188.685 216.08 190.713 214.741 191.605L19.212 321.958C17.8733 322.851 16.7881 322.27 16.7881 320.661V316.777ZM19.212 325.842C17.8733 326.735 16.7881 328.763 16.7881 330.372V334.256C16.7881 335.865 17.8733 336.446 19.212 335.553L214.741 205.2C216.08 204.308 217.165 202.28 217.165 200.671V196.787C217.165 195.178 216.08 194.597 214.741 195.49L19.212 325.842ZM16.7881 343.966C16.7881 342.357 17.8733 340.33 19.212 339.437L214.741 209.084C216.08 208.192 217.165 208.773 217.165 210.382V214.266C217.165 215.875 216.08 217.903 214.741 218.795L19.212 349.148C17.8733 350.04 16.7881 349.46 16.7881 347.851V343.966ZM19.212 353.032C17.8733 353.925 16.7881 355.952 16.7881 357.561V361.446C16.7881 363.054 17.8733 363.635 19.212 362.743L214.741 232.39C216.08 231.498 217.165 229.47 217.165 227.861V223.977C217.165 222.368 216.08 221.787 214.741 222.679L19.212 353.032ZM16.7881 371.156C16.7881 369.547 17.8733 367.519 19.212 366.627L214.741 236.274C216.08 235.382 217.165 235.963 217.165 237.571V241.456C217.165 243.065 216.08 245.092 214.741 245.985L19.212 376.338C17.8733 377.23 16.7881 376.649 16.7881 375.04V371.156ZM19.212 380.222C17.8733 381.114 16.7881 383.142 16.7881 384.751V388.635C16.7881 390.244 17.8733 390.825 19.212 389.933L214.741 259.58C216.08 258.687 217.165 256.659 217.165 255.051V251.166C217.165 249.557 216.08 248.977 214.741 249.869L19.212 380.222ZM16.7881 398.346C16.7881 396.737 17.8733 394.709 19.212 393.817L214.741 263.464C216.08 262.571 217.165 263.152 217.165 264.761V268.645C217.165 270.254 216.08 272.282 214.741 273.175L19.212 403.527C17.8733 404.42 16.7881 403.839 16.7881 402.23V398.346ZM19.212 407.412C17.8733 408.304 16.7881 410.332 16.7881 411.941V415.825C16.7881 417.434 17.8733 418.015 19.212 417.122L214.741 286.769C216.08 285.877 217.165 283.849 217.165 282.24V278.356C217.165 276.747 216.08 276.166 214.741 277.059L19.212 407.412ZM16.7881 425.536C16.7881 423.927 17.8733 421.899 19.212 421.006L214.741 290.654C216.08 289.761 217.165 290.342 217.165 291.951V295.835C217.165 297.444 216.08 299.472 214.741 300.364L19.212 430.717C17.8733 431.61 16.7881 431.029 16.7881 429.42V425.536ZM19.212 434.601C17.8733 435.494 16.7881 437.522 16.7881 439.13V443.015C16.7881 444.624 17.8733 445.204 19.212 444.312L214.741 313.959C216.08 313.067 217.165 311.039 217.165 309.43V305.546C217.165 303.937 216.08 303.356 214.741 304.248L19.212 434.601ZM16.7881 452.725C16.7881 451.116 17.8733 449.089 19.212 448.196L214.741 317.843C216.08 316.951 217.165 317.532 217.165 319.141V323.025C217.165 324.634 216.08 326.662 214.741 327.554L19.212 457.907C17.8733 458.799 16.7881 458.219 16.7881 456.61V452.725ZM19.212 461.791C17.8733 462.683 16.7881 464.711 16.7881 466.32V470.204C16.7881 471.813 17.8733 472.394 19.212 471.502L214.741 341.149C216.08 340.256 217.165 338.229 217.165 336.62V332.735C217.165 331.127 216.08 330.546 214.741 331.438L19.212 461.791Z" fill="url(#paint1_linear_5_32)"/>
</g>
<rect x="0.416025" y="0.22265" width="281" height="345.779" rx="9.5" transform="matrix(0.83205 -0.5547 0 1 0.0698713 156.656)" stroke="url(#paint2_linear_5_32)"/>
<defs>
<linearGradient id="paint0_linear_5_32" x1="141" y1="-1.17488e-05" x2="512.374" y2="277.827" gradientUnits="userSpaceOnUse">
<stop stop-color="#677489"/>
<stop offset="1" stop-color="#4A5669"/>
</linearGradient>
<linearGradient id="paint1_linear_5_32" x1="-17" y1="52.9999" x2="278.846" y2="190.769" gradientUnits="userSpaceOnUse">
<stop stop-color="#97A3B6"/>
<stop offset="1" stop-color="#97A3B6" stop-opacity="0"/>
</linearGradient>
<linearGradient id="paint2_linear_5_32" x1="18.0278" y1="-9.42541" x2="322.475" y2="56.5677" gradientUnits="userSpaceOnUse">
<stop stop-color="#CDD5E0"/>
<stop offset="1" stop-color="#CDD5E0" stop-opacity="0"/>
</linearGradient>
<clipPath id="clip0_5_32">
<rect width="282" height="346.779" rx="10" transform="matrix(0.83205 -0.5547 0 1 0 156.425)" fill="white"/>
</clipPath>
</defs>
</svg>
